<svg version="1.2" xmlns="http://www.w3.org/2000/svg" viewBox="0 0 2262.7200086610696 1599.901016349978" width="2263" height="1600">
	<defs>
		<clipPath clipPathUnits="userSpaceOnUse" id="cp1">
			<path d="m0 993.94h2262.72v251.98h-2262.72z"/>
		</clipPath>
		<clipPath clipPathUnits="userSpaceOnUse" id="cp2">
			<path d="m0 1148.93h2262.72v209.99h-2262.72z"/>
		</clipPath>
		<clipPath clipPathUnits="userSpaceOnUse" id="cp3">
			<path d="m0 1229.92h2262.72v279.99h-2262.72z"/>
		</clipPath>
		<clipPath clipPathUnits="userSpaceOnUse" id="cp4">
			<path d="m0 1195.93h2262.72v403.97h-2262.72z"/>
		</clipPath>
		<clipPath clipPathUnits="userSpaceOnUse" id="cp5">
			<path d="m977.94 889.94h1284.78v709.96h-1284.78z"/>
		</clipPath>
	</defs>
	<style>
		.s0 { fill: #fef9d0 } 
		.s1 { fill: #fcd478 } 
		.s2 { fill: #bf2f23 } 
		.s3 { fill: #8b211d } 
		.s4 { fill: #541615 } 
		.s5 { fill: #241312 } 
	</style>
	<g id="Layer 1">
		<g id="Clip-Path">
		</g>
		<path class="s0" d="m177.8 1091.2c0-118.08 95.73-213.82 213.82-213.82 118.1 0 213.83 95.74 213.83 213.82 0 118.1-95.73 213.83-213.83 213.83-118.09 0-213.82-95.73-213.82-213.83z"/>
		<g id="Clip-Path">
		</g>
		<g id="Clip-Path" clip-path="url(#cp1)">
			<g>
				<path class="s1" d="m-32.93 1190.25q5.72 0.03 11.4 0.06c102.49 0.57 211.31-2.06 320.6-4.78-81.52 0.61-202.43 1-238.49-0.53-17.77-0.73-54.79-1.5-93.51-2.13v-2.61c106.51-1.24 157.87-3.35 157.87-3.35-39.86 0-98.73-0.08-157.87-0.35v-138.73c31.05 0.07 68.65 0.95 101.41 4.96 52.2 6.41 64.48 10.11 107.46 8 42.98-2.12 79.82-5.32 125.87-3.73 46.05 1.61 82.89-0.53 138.15-2.14 55.26-1.59 73.68-4.79 138.15 0 64.48 4.8 171.93 1.07 171.93 1.07 0 0-42.98 8-67.54 8.53-24.56 0.54 39.9 3.22 95.17 0 55.26-3.19 39.91-4.26 79.82-1.6 39.91 2.67 132.01-3.72 159.64-1.06 27.63 2.66 52.19-3.73 95.17-4.8 42.98-1.07 101.32-2.66 101.32-2.66 0 0-125.88-3.2-159.65-6.41-33.77-3.19-61.4-5.34-89.03-3.19-27.63 2.12-61.4 2.66-85.96 1.06-24.56-1.6-61.4-3.21-85.96-2.67-24.56 0.54-79.83 2.14-98.24 0-18.42-2.13-128.95-5.82-128.95-5.82 0 0 135.09-2.71 156.57-2.71 21.5 0 61.41 2.13 110.53-0.54 49.12-2.66 98.24-5.86 116.66-5.86 18.42 0 33.77-6.41 85.96-2.67 52.19 3.73 79.82 6.84 107.45 5.29 27.64-1.56 128.94 1.02 187.28 0 0 0-79.83-6.89-122.8-6.36-42.99 0.53 110.52-1.6 122.8-1.6 12.28 0 89.02-0.53 116.66-2.13 27.63-1.6 76.75-6.41 76.75-6.41 0 0-46.05 0-92.1 0-42.57 0-64.16-5-91.42-5.76 16.18 0.22 57.26 0.63 79.13-0.64 27.64-1.6 55.27-4.8 104.39-1.6 49.12 3.2 98.24 3.74 110.52 2.13 12.28-1.6 6.14-5.86 70.61-3.73 64.47 2.13 64.47 0 138.16 1.06 73.67 1.07 107.45 8.01 159.63 8.01 0 0-67.54 2.13-113.59 3.2-46.04 1.07-82.89 0.54-98.24 3.74-15.35 3.2-52.19 5.33-76.75 4.8-24.56-0.54-79.82 2.67-79.82 2.67l-67.54 5.86c0 0 64.47-0.98 92.1 3.25 27.64 4.21 67.55 3.69 107.45 3.69 39.91 0 73.69-4.27 113.59 0 39.91 4.27 110.53 2.67 122.8 2.13 12.28-0.54 70.61 1.61 101.32 2.67 30.7 1.06 119.73-0.53 132.01-0.53 12.28 0-113.59 7.46-150.43 7.46-36.85 0-101.31 0.54-122.8 3.74-21.49 3.19-85.97 3.73-116.66 3.73 0 0 30.69 5.23 95.17 5.82 0 0-58.34 2.71-73.69 5.39-15.34 2.66-76.75 1.07-98.24 0-21.49-1.07-147.36-0.29-159.64 1.45-12.28 1.74-76.76-0.13-128.94 0-52.19 0.14-110.53-2.38-138.15 0.74-27.63 3.15-89.04 3.67-135.08 3.67-46.06 0-141.23 1.6-190.35 4.28 0 0 101.31 4.79 168.86 3.72 67.53-1.07 85.95 0.31 144.29 0.16 58.33-0.16 208.75 3.04 285.51 4.64 0 0-67.55 1.07-76.76 3.74-9.2 2.67-76.74 4.27-101.3 4.27-24.56 0-101.31 3.2-101.31 3.2 0 0 165.78-1.07 254.81 0 89.04 1.07 79.82-5.34 153.5-5.34 73.69 0 104.39 0 147.36-0.53 42.98-0.53 61.41 8.78 122.8 5.99 61.41-2.79 138.16-2.57 196.48 0.52 26.64 1.41 60.96 1.67 94.19 1.47v77.02c-136.3 1.27-286.74 2.19-286.74 2.19 0 0 160.15 1.06 286.74 1.83v68.08c-75.86 0.06-163.96 1.44-241.91 2.23-132.63 1.36-257.88-3.82-390.52-8.79-132.62-4.97-235.77-1.21-338.92-1.78-103.16-0.58-235.78 4.27-361.04 0-125.26-4.27-309.46-0.67-442.09-0.04-132.62 0.61-294.73-4.96-294.73-4.96 110.53-1.23 228.42-0.61 294.73-5.56 66.32-4.94 257.89-1.23 375.78-4.94 117.89-3.7 412.61-4.63 412.61-4.63 0 0-338.93-6.5-434.72-1.69-95.78 4.78-243.15-2.34-316.83-0.47-73.68 1.84-139.99-2.48-176.83-0.62-36.85 1.84-191.57-0.63-235.78-5.57-44.22-4.95-117.89 0-184.21 0q-2.01 0-4.03 0z"/>
			</g>
		</g>
		<g id="Clip-Path" clip-path="url(#cp2)">
			<g>
				<path class="s2" d="m2312.57 1158.91q-0.62 0-1.28-0.01c-7.02-0.03-14.05-0.27-22.04-1.57-7.99-1.3-17.5-0.58-26.05 1.41-8.55 1.99-36.64 0.48-40.97-0.56-4.34-1.03-16.71-3.1-26.51-2.8-9.78 0.29-6.37 2.98-11.93 1.2-5.57-1.78-20.71-2.33-40.61-2.6-19.9-0.27-9.9 2.97-7.71 3.67 2.19 0.7-2.88 2.33-26.33 2.64-23.44 0.31-8.06-2.76-14.53-2.55-6.47 0.2-23.98-0.25-21.47-1.85 2.52-1.6 5.65-0.52-9.61-2.22-15.25-1.69-5.61-0.47-13.82-1.98-8.2-1.51-10.97 2.41-18.84 0.43-7.87-1.99-7.5-4.2-20.92-1.14-3.43 0.78-5.18 1.23-6.02 1.47-0.04-0.1-0.57-0.16-2.43-0.05-7.11 0.42-19.23-0.78-25.85 2.44-3.02 1.47 0.75 1.88 4.5 1.95-12.03 0.3-20.97-1.14-35.28 0.2-14.69 1.37-13.74 1.11-25.89 1.28l-1.49-2.15q-1.88 0.33-3.68 0.71c-11.06 2.36-55.05 2.14-62.62 1.32-7.54-0.83-28.26-2.31-42.83-1.57-14.56 0.74-6.82 3.24-16.95 1.73-10.12-1.51-33.61-1.36-64.03-0.72-0.88 0.02-1.59 0.05-2.39 0.07q-6.47 0.54-13.31 0.93c-5.18 1.07 4.69 2.57 7.51 2.99 3.64 0.54-1.24 2.11-28.92 3.43-0.05-1.57 0-3.51 0.11-5.55q-2.86 0.06-5.77 0.1c-1.28 2.2-2.52 4.26-3.48 5.85-34.21 1.29-14.23-2.38-23.78-1.89-9.61 0.5-36.59 0.85-34.29-0.85 2.3-1.69 8.06-0.77-16.67-1.75-24.73-0.98-8.96-0.21-22.83-1.33-13.88-1.12-14.34 2.88-28.16 1.28-13.82-1.6-15.35-3.81-32.78-0.17-4.45 0.93-6.68 1.45-7.74 1.72-0.15-0.09-1.01-0.12-3.72 0.07-10.38 0.73-29.89 0.1-36.86 3.59-3.18 1.59 2.93 1.83 8.68 1.72-17.95 0.85-32.88-0.17-53.29 1.81-21.44 2.07-19.57 1.7-39.15 2.49-17.11 0.69-23 0.95-36.24 2.84l0.38-2.26q-1.01-0.05-2.01-0.09c-7.79-0.02-15.73-0.06-23.95-0.18-29.92-0.4-59.25-1.52-84.25-3.07 0.8 0.44 1.88 0.88 3.19 1.27 5.07 1.49-37.54 1.17-42.72 0.32-5.19-0.85-31.77-1.34-45.98-1.4-14.22-0.06-30.2-0.15-26.39-2.04 3.81-1.89-17.47-1.4-28.1-1.59q-3.04-0.06-4.6-0.24-7.21 0.21-15.38 0.1c-6.12-0.08-11.75-0.31-16.97-0.62-8.76 0.73-19.01 1.08-30.78 0.92-4.79-0.06-9.25-0.22-13.49-0.43-1.24-0.01-2.47-0.02-3.53-0.02q-3.23 0.08-6.54 0.08c-13.44 0.39 2.4 2.21-5.2 3.09-8.02 0.92-14.3-0.47-36.28-1.35-6.41 0.3-13.42 0.42-21.11 0.32-21.84-0.3-37.96-2.21-48.5-4.89q-4.09 0.14-8.49 0.19c-11.39 2.73-28.95 4.48-52.62 4.16-1.1-0.01-2.12-0.05-3.18-0.07 5.99 0.63-5.98 0.93-17.18 1.26-4.16 1.3-9.54 2.42-16.02 3.31q-1.16 0.16-2.36 0.31-1.64 0.2-3.36 0.38c-0.54 0.06-1.06 0.12-1.61 0.17q-2.7 0.26-5.61 0.47-0.49 0.03-0.98 0.07-2.63 0.17-5.43 0.31-0.5 0.02-1 0.05-3.12 0.14-6.44 0.22c-4.49 0.11-9.22 0.15-14.27 0.08-13.43-0.18-24.68-0.98-33.83-2.19-6.54-0.03-12.54-0.18-16.68-0.56-13.87-1.3-28.98 0.95-33.47 0.09-4.48-0.87-15.93 0.53-35.68 0.56-13.25 0.03-12.7 0.75-13.82 1.25-12.4-0.03-25.27 0.11-38.51 0.37-3.61-0.2-6.77 0.39-8.1-0.2-1.72-0.76-30.58 0.38-40.59 0.13-10.01-0.25-9.79-0.05-9.83-0.9-0.04-0.85 1.78-0.8-1.49-1.36-3.28-0.57 3.97-1.09-9.75-1.64-13.73-0.54-9.55 1.8-19.93 2.06-10.39 0.26-1.37 1.14-12.51 1.48-11.13 0.35-6.15 0.85-3.64 2.34 2.51 1.49 1.44 1.32-22.31 2.27-6.21 0.25-11.03 0.64-14.82 1.06-6.87 0.36-13.21 0.73-19.23 1.11-3.08-0.21-7.72-0.28-15-0.01-17.08 0.64-8.43-0.65-3.74-1.85 2.72-0.7 0.37-0.86-5.19-0.8-0.01-0.06 0-0.13-0.19-0.15-1.03-0.15-5.14 0.35-7.13-0.38-1.99-0.73-2.3-0.41-3.98-0.24-1.68 0.17-3.22 0.25-6.34-0.09q-0.99-0.1-1.96-0.13c0.59-0.2 0.98-0.41 0.9-0.63-0.44-1.22-4.63-0.99-20.8-0.39-16.16 0.6-19.73-0.24-30.95-0.78-11.22-0.55-15.95 0.8-14.65 1.98 1.3 1.19 1.86 0.9-3.71 2.07-5.57 1.17-6.73 1.35 0.8 2.22 7.53 0.87-6.21 1.14-25.65 3.31-19.44 2.16-11.08 1.51-1.41 2.57 9.66 1.07 3.45 0.44-4.23 1.48-0.79 0.11-1.39 0.2-1.96 0.29-8.93 0.53-18.39 1.19-28.26 1.99q-1.65 0.04-3.41 0.17c-7.35 0.59-7.98-0.02-18.07-0.45-10.1-0.41-4.94 0.39-17.86 1.21-12.92 0.83-18.99 0.83-18.97 0.36 0.02-0.48 5.83-1.46-11.69-1.29-17.52 0.15 0 0-1.11-1.44-0.4-0.52-1.11-0.71-2.27-0.77-10.73 1.52-24.67 2.39-41.84 2.16q-5.36-0.08-10.25-0.28-3.29 0.24-6.84 0.39c-5.66 0.75-12.19 1.32-19.55 1.66-5.6 2.16-14.16 3.98-25.53 5.13-2.76 0.89-6.16 1.69-10.36 2.39-1.92 0.37-3.97 0.7-6.09 1l1.97 1.8c-7.24 0.48-14.85 1.18-20.41 2.09q-1 0.16-1.78 0.32c-2.96 6.34-25.25 12.14-65.98 11.77 0.49 0.41-1.95 1.34-9.97 2.89v106.97l2346.68 31.84z"/>
			</g>
		</g>
		<path class="s2" d="m367.5 1170.08c0 0 21.66 2.82 28.64 5.18l-3.05 0.44c0 0-2.68-2.22-25.59-5.62z"/>
		<g id="Clip-Path" clip-path="url(#cp3)">
			<g>
				<path class="s3" d="m2312.57 1236.14q-0.63-0.03-1.23-0.03c-7.86 0-10.47 1.28-21.82 0-11.35-1.28-13.1-0.42-20.95-0.42-7.86 0-5.24 2.13-10.48 4.25-5.23 2.11-18.43-1.25-27.05-1.62-8.63-0.36-10.47-0.69-15.7-0.61-5.23 0.08-10.49-0.1-16.6-1.6-6.11-1.49-13.09-0.42-19.2 2.21-6.1 2.65-27.19 1.23-30.54 0-3.36-1.22-12.83-3.6-20.08-3.06-7.25 0.53-4.37 3.84-8.73 1.71-4.36-2.14-15.71-2.57-30.55-2.57-14.84 0-6.99 3.89-5.27 4.74 1.72 0.84-1.85 2.96-19.25 3.74-17.41 0.79-6.35-3.31-11.14-2.94-4.79 0.36-17.88 0.09-16.21-1.96 1.67-2.04 4.14-0.75-7.43-2.61-11.55-1.87-4.23-0.49-10.52-2.25-6.3-1.75-7.87 3.2-13.98 0.85-6.1-2.35-6.1-5.12-15.7-1.06-2.45 1.03-3.7 1.62-4.3 1.94-0.03-0.12-0.44-0.19-1.81-0.02-5.24 0.64-14.4-0.66-18.92 3.49-2.06 1.9 0.8 2.36 3.6 2.38-8.92 0.57-15.76-1.07-26.23 0.84-10.76 1.97-10.09 1.63-19.1 2.05l-1.38-2.67q-1.36 0.46-2.65 0.95c-7.93 3.15-40.7 3.63-46.42 2.72-5.72-0.9-21.33-2.41-32.06-1.24-10.75 1.18-4.68 4.18-12.39 2.46-7.73-1.71-25.19-1.13-47.74 0.19-0.65 0.04-1.17 0.09-1.76 0.13q-4.77 0.78-9.79 1.39c-3.72 1.43 3.81 3.14 5.96 3.62 2.78 0.61-0.65 2.67-21.08 4.79-0.24-1.97-0.45-4.4-0.62-6.96q-2.12 0.13-4.28 0.23c-0.68 2.78-1.34 5.38-1.86 7.38-25.29 2.21-10.89-2.73-17.93-1.96-7.09 0.79-27.11 1.69-25.61-0.48 1.5-2.16 5.89-1.1-12.62-1.91-18.53-0.81-6.7-0.11-17.16-1.28-10.46-1.17-10.3 3.86-20.78 2.08-10.49-1.77-11.91-4.51-24.42 0.35-3.2 1.24-4.8 1.93-5.54 2.29-0.12-0.11-0.77-0.14-2.77 0.15-7.63 1.09-22.22 0.63-26.96 5.12-2.17 2.05 2.41 2.25 6.68 2.02-13.26 1.36-24.49 0.35-39.43 3.16-15.69 2.96-14.33 2.47-28.81 3.79-12.63 1.16-17 1.58-26.6 4.18v-2.83q-0.77-0.04-1.51-0.09c-5.8 0.11-11.72 0.19-17.84 0.19-22.32 0-44.28-0.89-63.08-2.41 0.65 0.53 1.51 1.07 2.53 1.52 3.97 1.79-27.77 2.11-31.74 1.14-3.97-0.97-23.8-1.14-34.38-0.97-10.58 0.16-22.49 0.32-19.9-2.11 2.6-2.44-13.17-1.46-21.1-1.52q-2.27-0.03-3.46-0.22-5.33 0.38-11.43 0.38c-4.56 0-8.77-0.18-12.7-0.49-6.42 1.07-14.01 1.69-22.79 1.69-3.57 0-6.91-0.12-10.09-0.32-0.92 0.02-1.84 0.03-2.63 0.04q-2.39 0.15-4.86 0.21c-9.95 0.72 2.07 2.73-3.47 3.96-5.86 1.29-10.7-0.34-27.17-1.07-4.73 0.48-9.92 0.75-15.65 0.75-16.29 0-28.53-2.12-36.71-5.3q-3.03 0.25-6.29 0.38c-8.13 3.63-20.98 6.12-38.63 6.12-0.82 0-1.58-0.03-2.38-0.04 4.54 0.69-4.33 1.27-12.62 1.88-2.93 1.69-6.79 3.19-11.5 4.41q-0.84 0.23-1.72 0.43-1.19 0.29-2.45 0.54c-0.4 0.08-0.77 0.16-1.18 0.24q-1.97 0.38-4.11 0.69-0.36 0.04-0.72 0.09-1.93 0.28-4 0.49-0.36 0.04-0.74 0.08-2.3 0.22-4.76 0.39c-3.33 0.21-6.85 0.34-10.61 0.34-10.02 0-18.48-0.81-25.43-2.17-4.88 0.07-9.37-0.02-12.49-0.43-10.49-1.38-21.44 1.69-24.89 0.68-3.45-1-11.79 0.94-26.48 1.32-9.85 0.26-9.36 1.16-10.13 1.81-9.23 0.17-18.78 0.56-28.6 1.12-2.71-0.19-4.99 0.59-6.05-0.13-1.38-0.92-22.7 1-30.18 0.86-7.48-0.14-7.3 0.1-7.43-0.96-0.14-1.06 1.22-1.03-1.28-1.68-2.51-0.66 2.81-1.44-7.47-1.89-10.27-0.44-6.87 2.42-14.56 2.92-7.7 0.51-0.88 1.45-9.12 2.07-8.24 0.62-4.47 1.17-2.42 2.99 2.06 1.83 1.24 1.64-16.31 3.23-4.58 0.42-8.12 0.98-10.89 1.58-5.07 0.57-9.73 1.14-14.16 1.72-2.33-0.21-5.78-0.22-11.17 0.24-12.62 1.09-6.35-0.67-3.02-2.26 1.95-0.92 0.17-1.08-3.96-0.91-0.01-0.08-0.02-0.16-0.16-0.19-0.79-0.16-3.78 0.53-5.35-0.35-1.58-0.88-1.77-0.48-2.99-0.23-1.23 0.24-2.36 0.37-4.73 0q-0.75-0.11-1.48-0.14c0.42-0.26 0.68-0.53 0.6-0.8-0.49-1.52-3.58-1.17-15.53-0.14-11.95 1.02-14.71 0.04-23.13-0.45-8.41-0.49-11.76 1.27-10.64 2.74 1.11 1.47 1.49 1.09-2.5 2.65-4 1.56-4.84 1.8 0.88 2.77 5.71 0.97-4.49 1.54-18.67 4.58-14.19 3.04-8.06 2.08-0.73 3.25 7.33 1.18 2.63 0.5-2.96 1.93-0.57 0.15-1.01 0.27-1.42 0.39-6.57 0.82-13.53 1.81-20.77 2.98q-1.22 0.08-2.52 0.28c-5.39 0.85-5.94 0.12-13.5-0.25-7.57-0.36-3.62 0.56-13.13 1.81-9.51 1.25-14.03 1.36-14.07 0.77-0.05-0.6 4.15-1.93-8.87-1.42-13.01 0.51 0 0-1.01-1.78-0.36-0.64-0.91-0.87-1.78-0.93-7.79 2.1-18.05 3.42-30.86 3.42q-3.99-0.01-7.66-0.18-2.41 0.36-5.04 0.61c-4.11 1.05-8.9 1.87-14.33 2.41-3.89 2.81-10.04 5.23-18.35 6.87-1.94 1.16-4.36 2.22-7.4 3.17-1.38 0.5-2.87 0.94-4.41 1.36l1.69 2.22c-5.32 0.73-10.89 1.73-14.91 2.97q-0.72 0.22-1.29 0.43c-1.4 8.01-17.24 15.66-47.59 15.89 0.63 0.76-3.66 3.2-20.17 7.9-11.08 3.14-13.73 2.89-14.7 2.26q-4.42 0.76-9.59 1.2c-6.87 1.66-15.54 3.32-15.97 2.07-0.61-1.71 4.14-1.71-12.62 0.75-16.76 2.48-5.89 1.02-15.99 1.93-10.09 0.91-5.54 4.32-16.18 4.82-10.63 0.5-14.26-1.14-20.85 4.22-1.68 1.37-2.46 2.1-2.78 2.48-0.2-0.07-0.79 0.03-2.27 0.55-5.65 2-18.7 4.05-18.86 7.91-0.08 1.75 4.06 1.14 7.55 0.29-10.29 3.09-20.91 4.23-31.37 8.59-11 4.59-10.27 4.04-21.64 7.3-11.38 3.27-14.19 4.11-22.22 8.82-8.03 4.71-20.96 6.58-20.96 6.58l1.63 1.94c-13.73 1.32-10.06-0.96-14.49-1.06-5.25-0.12-8.23-0.84-44.39 3.41-36.16 4.25-27.4 4.27-33.46 1.55-6.06-2.71-16.28 1.65-25.12 1.52-8.84-0.13 0.6 2.42-17.34 5.58-17.94 3.16-27.64 1.55-32.85 1.61-5.21 0.06-19.53 3.51-6.08 3.48 13.46-0.02-21.17 2.44-31.68 5.26-10.51 2.81 4.75-3.94-11.31-0.91-16.07 3.03-32.19 5.01-39.14 6.83-6.74 1.77 15.97-6.52-26.28-0.9v64.39l191.62-22.5h2155.06z"/>
			</g>
		</g>
		<path class="s3" d="m770.55 1284.79c0 0 16.46 3.16 21.96 6l-2.22 0.61c0 0-2.27-2.74-19.74-6.61z"/>
		<g id="Clip-Path" clip-path="url(#cp4)">
			<g>
				<path class="s4" d="m2312.57 1454.39c-4.64 2.75-24.58 2.29-26.05 2.35-1.63 0.07-6.76-2.75-12.24 0-5.47 2.76-18.36 1.07-21.48 0-3.11-1.06-6.48-2.8-22.66 0-16.18 2.81-11.19 0.48-14.8 0-3.61-0.47-2.66-2.42-13.01-2.18-10.34 0.24-10.5-0.59-9.23-3.22 1.28-2.63-11.13-0.33-16.88 1.51-5.74 1.85-9.03-0.66-9.03-3.51 0-2.85-4.11 0-21.36 3.51-17.26 3.52-6.58 2.3-12.33 0-5.75-2.29-6.92-0.04-14.18 2.88-7.27 2.93-6.36 2.97-15.4 1.01-9.04-1.95-8.07 1.53-15.88 3-7.82 1.47-7.95-2.52-12.42 1.31-4.46 3.82-13.13 3.16-26.26 3.65-13.13 0.49-8.71-2.27-11.09-3.1-2.38-0.82-3.42-2.02-22.27-2.01-18.83 0-14.78 1.18-16.28-2.66-1.5-3.85-8.36-0.3-12.4-1.61-4.04-1.31-0.89 2.79-10.75 3.97-9.86 1.18-13.58-1.9-16.04-2.52-2.45-0.61-10.76 1.37-4.5 3.11 6.26 1.75-11.01-0.05-17.25 1.72-6.25 1.78 4.1-3.79-4.82-2.5-8.93 1.28-17.37 1.37-21.48 2.5-4.11 1.13 11.5-5.6-13.97-4.38-25.45 1.22-11.5 1.78-18.18-1.55-6.68-3.33-8.11-1.11-13.75 0-5.62 1.11-3.39 4.21-9.14 3.03-5.75-1.18-13.98 0.59-24.88-0.35-10.91-0.93 2.69 3.6-9.67 5.05-11.48 1.34 2.21-1.15-17.67 1.36q-10.32-0.1-20.65-0.21c0.36-0.78 0.33-1.59-2.04-2.12-7.85-1.74-10.24-0.8-15.11-1.87-4.87-1.07-6.07 0.23-16.59 2.43-10.52 2.21-5.98-0.16-19.99-1.39-14-1.22-2.13-1.33-0.74-3.23 1.39-1.91 1.75-2.5-7.41-2.33-9.17 0.17-8.01-0.01-8.06-2.08-0.04-2.07-2.5-2.26-14.93-1.44-12.45 0.82-19.35-0.97-22.63-1.95-3.1-0.91-9.55 2.11-19.95 2.45l4.49-0.92-6.12 0.71 3.16-1.85-3.51 0.99 0.83-2.11-4.56 1.38 1.71-1.92-2.82 0.64 0.59-1.05-1.7 1.18-0.53-0.86-1.34 1.16-0.89 1.91c0 0-3.29 0.14-4.66 0.54l1.59-0.75-1.42-0.32 1.6-0.36-1.53-0.17 2.13-0.97-1.42-0.27 1.95-0.93 1.94 0.5 0.23-1.07 6.77-0.77-2.87-0.4 4.53-1.13-3.49 0.16 2.2-1.51-2.37 0.71 1.18-1.36-2.8 1.13 1.36-1.99-3.66 1.48 0.71-1.92-1.51 2.47-0.51-1.7-0.64 2.08-0.44-1.5-0.63 1.98-0.86-2.45-1.8 1.23 1.13-2.34-2.33 1.69 0.05-1.76-1.27 1.35 0.1-2.1-2.27 1.99 0.27-2.09-0.77 1.67-0.75-2.59-0.32 2.39-1.98-1.58c0 0 0.59 1.46 0.95 2.19q0.26 0.27 0.26 0.38c-0.01 0.1-0.12-0.08-0.26-0.38-0.69-0.69-2.44-1.94-2.46-1.83-0.02 0.15 1.15 2.37 1.15 2.37l-2.62-1.56 1.08 1.48-1 0.68-0.47 0.81-0.73-2.1-0.97 1.13-0.63-2.14-0.23 1.75-3.28-2.13 1.8 2.3-3.06-1.05 2.25 1.64-3.81-0.88 2.67 1.17-3.62-0.19 2.37 0.71-3.94 0.13 4.98 1-5.47-0.09 7.25 0.38-2.36 0.66 2.4 0.42-2.3 0.17 0.29 0.56-6.41-1.17 1.97 0.88q-0.55-0.1-1.25 0.14l-1.55-0.33 1.01 0.53c-0.57 0.23-1.21 0.54-1.91 0.86l-0.37 0.01 0.25 0.05c-1.63 0.73-3.62 1.46-6.01 1.27l0.08-0.05-0.15 0.04q-0.75-0.06-1.53-0.26l0.41-0.32-0.57 0.27q-0.79-0.21-1.65-0.58l1.96-0.08-2.85-0.44 2.71-0.87-3.21 0.5 2.64-1.59-3.68 1.12 1.93-1.55-3.32 1.39 1.65-1.81-2.9 1.78 0.25-1.92-1.22 2.08-0.4-1.75-1.07 1.85-1.2-0.11 1.35-1.03-1.45 0.06 1.18-1.25-2.05 0.65 1.46-2.12-1.95 1.63-0.05-1.98-0.86 1.81-1.38-2.1 0.15 2.29-1.74-2.12 0.46 2.43-1.93-1.97 0.06 1.87-2.25-1.99 1.9 2.86-2.06 0.35q-0.01 0-0.03-0.01l0.22-1.66-1.3 1.3q-0.28-0.07-0.57-0.16l-0.17-1.71-1.01 1.38q-0.74-0.2-1.5-0.38l-0.67-0.75 0.18 0.65c-2.42-0.54-4.93-0.91-7.27-0.91-4.23 0-6.85 0.57-10.3 0.74v1.22c-2.87 0.25-5.56 0.68-7.37-0.12-4-1.78-12.65-0.27-15.88-3.19-3.25-2.92-16.23 8.57-18.66 4.12-2.45-4.44-14.98 8.24-17.81 2.21-2.83-6.04-13.23 8.72-16.45 1.1-3.23-7.63-13.97 5.15-17.24-2.09-3.28-7.23-15.51 3.12-15.74-4.35-0.22-7.47-18.56 3.34-18.56 3.34 0 0-13.14-1.08-12.68-4.59 0.46-3.51-16.04-2.02-16.98-4.03-0.95-2.01-9.02-9.5-11.83-6.51-2.81 2.99-9.99-2.09-13.99 0.84-4.02 2.93-11.84-6.51-12.66-0.27-0.82 6.23-19.44 0.94-15.62 8.59 3.82 7.66-11.14-2.54-18.06 4.16-4.95 4.79-11.12 0.09-14.29-0.83q-0.92 0.2-1.86 0.39-0.23 0.38-0.25 1.15c-0.17 5.88-9-0.48-11.96 3.69-1.81 2.54-3.79 2.88-6.35 3.22q-7.71-0.27-15.24-0.56c0.49-2.62 0.92-5.28 1.24-7.89q-1.35-0.32-2.65-0.68c-0.33 2.77-0.75 5.65-1.29 8.47q-0.65-0.03-1.31-0.05c-2.42-0.91-6.45-1.1-9.48-6.71-4.37-8.08-12.55-1.05-12.14-4.17 0.4-3.04-12.42 2.55-18.54-2.23q-0.29-2.46-0.22-4.99-1.31-0.4-2.6-0.84l0.09 0.35 0.12-0.06q-0.05 1.91 0.08 3.78c-5.33-2.6-11.04 1.93-17.7-4.32-7.51-7.07-7.82 9.01-11.01 5.7-3.18-3.31-12.09 0.15-16.11 3.08q-0.15 0.1-0.3 0.2-0.06-0.36-0.18-0.71c-1.03-2.77-3.09-0.16-5.73 2.25-2.03-0.25-3.49-1.4-3.23-3.41 0.52-3.9-4.57-6.52-12.63-4.98-8.05 1.54-11.86 2.91-16.73-5.98-4.86-8.89-11.46-9.24-12.28-3-0.83 6.23-8.04 10.56-20.36 3.25-12.33-7.32-11.09 10.8-17.31 3.01-2.64-3.3-5.31-1.44-8.17 1.49q-0.26-0.32-0.69-0.66c-3.42-2.63-2.97 2.53-4.46 2.45-1.27-0.07-4.54-1.13-5-3.65-0.52 0.04-1.07 0.05-1.6 0.08-0.95 1-2.26 1.89-3.97 1.8q-0.28-0.01-0.51-0.01 0.08-0.82 0.16-1.62-1.88 0.02-3.81-0.07-0.29 2.8-0.64 5.74c-20.98-2.6-43.97-4.92-67.75-7.35-2.5 3.01-5.59 5.93-9.16 8.65-6.03-0.49-9.75-0.86-0.59-3 13.71-3.21 2.36-4.19 8.72-6.61 6.35-2.41 0.36-2.73 1.08-8.18 0.02-0.2 0-0.33 0-0.49-6.92 1.73-14.51 2.54-22.53 2.12-9.11-0.48-17.85-2.71-25.37-6.14l-2.37 18c-0.58 0.84-1.14 1.7-1.75 2.53-1.72-2.16-8.33-2.41-9.88-9.78-1.87-8.89-14.83-4.14-13-7.05 1.8-2.84-16.21-0.64-21.63-6.79 0.46-1.62 1.11-3.25 1.87-4.87q-1.43-0.7-2.81-1.45l-0.04 0.36 0.18-0.03q-0.9 1.82-1.52 3.67c-5.39-3.85-14.28-0.9-19.71-8.59-6.15-8.69-13.38 6.74-15.86 2.76-2.47-3.99-14.79-2.88-20.93-1.05q-0.23 0.06-0.46 0.12 0.09-0.36 0.09-0.74c-0.08-2.92-3.7-0.92-7.95 0.75-2.36-0.74-3.65-2.22-2.47-4.1 2.29-3.64-2.79-7.43-13.26-7.96-10.46-0.52-15.68-0.14-17.81-9.94-2.14-9.79-10.03-11.77-13.69-5.97-3.66 5.82-14.3 8.2-26.18-1.94-11.89-10.13-18.12 7.66-22.37-1.41-1.81-3.84-5.86-2.7-10.58-0.59-0.14-0.25-0.3-0.52-0.57-0.82-3.04-3.38-4.7 1.71-6.48 1.25-1.52-0.38-5.04-2.22-4.52-4.77-0.66-0.09-1.33-0.21-1.99-0.32-1.58 0.73-3.56 1.27-5.61 0.75q-0.32-0.08-0.61-0.13 0.45-0.76 0.89-1.53-2.31-0.45-4.62-1.02-2.36 4.07-5.09 8.37c-9.34-0.21-20.28 2.64-20.78-2.25-0.7-6.8-16.76-7.66-20.92-12.92-4.17-5.25-20.07 5.48-19.51-0.68 0.57-6.18-10.4 2-20.15-1.7-9.76-3.71-28.52-6.74-10.45-6.41 18.06 0.33 4.67-3.46 13.44-4.2 8.77-0.74 1.61-2.54 4.81-7.63 0.12-0.18 0.15-0.32 0.21-0.47-9.17-0.06-18.75-1.17-28.34-3.57-11.69-2.94-22.03-7.71-29.98-13.41q-2.56-0.51-5.14-1.14-4.83-1.22-9.31-2.82c-3.26-0.53-6.53-1.16-9.8-1.98q-2.97-0.75-5.8-1.64c-0.45 0.28-0.89 0.55-1.28 0.89-3.72 3.28-8.62 7.1-7.96 4.74 0.65-2.36-6.49-2.89-15.09-5.05-5.8-1.46-8.44-2.51-7.79-4.65-9.21-2.39-17.56-5.91-24.53-10.13-7.9-2.42-15.07-5.67-21.13-9.46-3.31-0.53-6.62-1.16-9.94-2-12.1-3.04-22.74-8.04-30.78-14-0.41 1.29-0.7 2.61-0.79 3.77-0.37 4.54-18.04 0.94-18.82-1.78-0.78-2.72-11.3-5.78-17.27-6.86-5.96-1.08-12.65-2.33-7.81-7.43 4.85-5.1-5.08-5.06-9.29-6.28-4.22-1.21-0.93-5.12 11.83-6.55 12.75-1.43 4.21-4.41 2.06-4.95-2.15-0.54 6.08-4.37 5.95-9.45-0.11-5.08-6.91-0.89-14.44 1.84-7.55 2.74-4.39 5.64-12.08 2.02-7.68-3.61-10.2 0.38-12.72 4.38-2.52 4-1.2 9.8-14.33 6.93-13.14-2.88-6.77 5.45-12.41 7.82-5.65 2.37-5.31-3.43-16.68-7.55-11.36-4.12-1.46-5.84 4.73-9.07 6.19-3.23-2.58-5.12-2.99-12.38-0.41-7.25-1.96-2.17 2.39-9.08 4.35-6.89-3.16-2.89-15.38-7.21-12.22-4.34-12.81 0.55-12.69 5.64 0.12 5.08-4.32 8.18-11.5 6.38-7.17-1.81-10.89 1.46-16.5 5.1-2.21 1.43-3.28 3.13-3.64 4.9-2.14-0.31-3.51-0.75-3.25-1.27 0.88-1.71-7.06-3-15.91-2.78-8.86 0.24-2.86-0.22-8.94-1.51-6.08-1.3-5.44-2.33-11.33-2.87-5.88-0.56-11-0.22-16.27-2.89-5.26-2.67-2.3 1.49-12.16 1.46-9.86-0.05-11.6-2.79-17.26-5.34-5.66-2.55-7.86-1.89-10.44-1.5-2.58 0.4-9.12 0.22-17.75-2.89-8.63-3.11-13.17-2.71-14.58-0.34-1.4 2.36-17.51-0.52-18.6-0.66-1.09-0.11-3.79-2.36-8.05-1.23-4.26 1.12-12.33-1.23-14.12-2.2-1.8-0.98-3.6-2.39-14.91-2.32-11.31 0.07-7.47-0.84-9.73-1.5-2.26-0.66-1.17-1.75-8.03-2.66-6.87-0.91-6.77-1.43-5.31-2.93 1.46-1.48-7.24-1.32-11.46-0.78-4.22 0.55-5.79-1.32-5.11-3.07 0.68-1.75-2.7-0.42-14.88-0.04-12.19 0.41-4.87 0.75-8.11-1.25-3.23-2-4.54-0.73-10.01 0.32-5.48 1.06-4.89 1.18-10.37-0.94-5.47-2.13-5.67 0.1-11.16 0.21-5.49 0.11-4.62-2.35-8.47-0.46-1.8 0.87-3.98 1.05-6.67 0.89v439.5h2346.68zm-678.99-6.36l-1.27-0.12-1.36 0.62 0.71-1.24-0.58 0.26 0.14-1.07 2.59-0.2-1.38 0.76zm12.41 5.53l-2.72-0.14 0.02 0.51-2.21 0.15c2.23-1.67 5.37-1.26 5.37-1.26z"/>
			</g>
		</g>
		<g id="Clip-Path" clip-path="url(#cp5)">
			<g>
				<path class="s5" d="m2312.57 1203.09l-8.25-68.11-32.08-41.31-17.69 5.5c-2.28-0.21-2.88-0.3-6.96-1.99-4.93-2.04-8.15-0.29-12.34-0.9 1.32-0.02 2.66-0.51 1.69-2.53-2.12-4.43-6.44-3.04-8.91-3.73-0.64-0.18-0.83-0.11-0.85 0.02-0.28-0.34-0.87-0.96-2.02-2.07-4.52-4.33-4.52-1.37-7.4 1.14-2.88 2.51-3.61-2.78-6.57-0.91-2.47 1.56-0.57 0.83-2.95 1.67l-21.54-56.7-28.06-45.65-52.69-8.62c-1.07-1.11-3.59-1.79-8.04-1.79-7.75 0.02-11.45-2.15-12.44-3.49-0.98-1.33-1.51-2.77-7.11-2.25-4.82 0.45-8.21 2.06-12.47 0.27l-23.53-35.9-64.15-19.4-111.83 34.79c-0.17-0.74-0.57-1.22-3.44-0.94-5.68 0.56-9.73-1.75-11.18-0.85-1.46 0.9-4.57 2.6-10.85 2.58-6.3-0.02-7.48 0.24-7.14 1.82 0.26 1.25 0.66 1.56-1.41 1.79l-0.88-2.81c-5.32 1.1-5.73 2.01-6.69 2.78-1.27 1.02 2.42 3.36-6.15 4.01-8.56 0.66-13.91 2.05-17.96-1.34-4.06-3.39-2.9 0.56-8.36-0.21-5.47-0.78-5.93-4.3-11.12-1.59-5.18 2.71-4.61 2.6-10.18 0.33-5.57-2.26-7.02-4.38-9.99-1.62-2.97 2.76 4.26 3.04-7.89 1.06-12.16-1.97-15.68-4.43-14.79-1.62 0.89 2.82-0.44 5.57-4.7 4.25-4.26-1.33-12.92-2.53-11.29-0.04 0.84 1.27 1.27 2.11 0.61 2.71l0.25 0.79c-3.37-0.66-8.24-2.04-12.56-5-7.44-5.1-9.64-5.78-18.55-8.41-8.89-2.62-8.14-1.98-17.43-6.44-8.85-4.25-16.22-4.12-24.33-6.68 2.65 0.6 5.61 0.78 4.71-1.58-1.98-5.17-11.36-5.91-15.96-7.71-1.2-0.48-1.62-0.5-1.72-0.39-0.4-0.45-1.25-1.32-3-2.9-0.45-0.41-0.85-0.74-1.25-1.07l-7.76-9.06-96.23-22.42-72.17 22.42-17.84 21.38c-4.73-1.11-9.14-0.86-12.12 1.23-3.45 2.43-6.98 3.4-10.63 4.1-3.64 0.69-4.74 1.3-10.5 2.95-5.76 1.65-13.14 7.02-17.83 5.66-4.69-1.36-3.98-3.92-9.4-2.74-3.31 0.71-5.2 0.77-7.81 1.38l1.11 2.22c-3.16-2.33-7.82-1.49-10.68-2.06-0.89-0.18-1.16-0.11-1.18 0.01-0.39-0.33-1.21-0.96-2.8-2.06-6.26-4.33-6.26-1.37-10.24 1.14-3.98 2.5-4.99-2.79-9.1-0.91-4.1 1.87 0.67 0.41-6.86 2.39-7.53 1.99-5.93 0.61-4.84 2.79 1.09 2.18-7.44 2.47-10.56 2.08-0.81-0.1-0.92 0.12-0.85 0.49-6.41 3.68-47.96 28.25-47.96 47.01 0 20.33-21.47 60.97-42.92 74.53-21.48 13.55-77.81 40.65-83.17 72.27 0 0-37.56 31.63-45.61 60.99-8.05 29.35-37.55 182.93-75.11 205.52l-32.2 67.76c0 0 13.42 117.44 0 149.07l-9.27 7.31h1333.97zm-941.33-249.72c1.01-0.01 2.03-0.18 2.5-0.66l0.41 0.78c-0.95 0.01-1.91-0.01-2.91-0.12z"/>
			</g>
		</g>
		<path class="s5" d="m1928.96 816.95c-6.38-3.29-31.51-3.9-36.34-8.55-4.84-4.66-21.08-1.22-21.08-1.22-0.83-10.98-43.84-8.59-43.84-8.59-13.08-64.19 30.26-176.54 30.26-176.54 0 0-2.59-91.81-17.31-92.66-14.71-0.84-68.79-24.59-68.79-24.59 0 0-10.3-3.31-10.9-6.15h-68.05c-0.78 2.84-9.94 6.83-9.94 6.83 0 0-49.22 23.07-63.94 23.91-14.72 0.85-18.21 89.73-18.21 89.73 0 0 42.09 115.28 29.01 179.47 0 0-40.87-2.39-41.7 8.59 0 0-16.24-3.44-21.07 1.22-4.84 4.65-29.96 5.26-36.33 8.55-6.38 3.28-74.94 22.23-73.43 73.91 1.51 51.52 157.85 84.61 272.54 77.48 114.69 7.13 271.02-25.96 272.54-77.48 1.52-51.68-67.05-70.63-73.42-73.91z"/>
		<path class="s5" d="m1632.06 541.11l-8.72-11.67c0 0-44.3 4.39-61.83 40.81-21.45 44.54-33.18 120.51-33.18 120.51l-70.25 149.45 21.17 12.89c0 0 64.05-82.48 82.97-108.66 18.93-26.18 42.9-114.15 42.9-114.15z"/>
		<path class="s5" d="m1484.6 792.91c0 0-30.56 20.71-43.55 29.66-1.22 0.84-2.3 1.59-3.17 2.2q-0.59 0.42-1.16 0.94l-10.92 7.91c-1.48 1.07-1.93 3.23-0.88 4.79 0.78 1.16 2.06 2.35 4.15 3.09-2.16 9.8-1.5 20.34 2.63 22.68 0 0 6.34 3.17 10.48-1.98l-24.41 34.14c0 0-3.35 6.05 0.36 9.77 3.72 3.72 12.24-3.41 14.84-7.58 0 0-4.96 8.74 0.38 13.92 5.35 5.18 19.88-15.26 19.88-15.26 0 0-6.5 9.73-1.77 14.75 4.73 5.02 18.11-14.68 18.11-14.68l13.77-19.95c0 0 21.6-41.71 28.26-64.88zm-42.96 54.71c0 0 0.42-4.44-3.81-5.8 0 0 9.06-1.63 12.06-4.52z"/>
		<path class="s5" d="m1824.42 541.11l8.72-11.67c0 0 48.65 0 62.61 35.4 18.2 46.15 32.4 125.92 32.4 125.92l70.24 149.45-21.16 12.89c0 0-64.05-82.48-82.98-108.66-18.92-26.18-42.9-114.15-42.9-114.15z"/>
		<path class="s5" d="m1944.88 810.28c6.66 23.16 28.26 64.87 28.26 64.87l13.77 19.95c0 0 13.38 19.71 18.11 14.68 4.73-5.02-1.77-14.75-1.77-14.75 0 0 14.52 20.45 19.87 15.27 5.34-5.18 0.38-13.92 0.38-13.92 2.61 4.17 11.12 11.3 14.83 7.58 3.72-3.73 0.36-9.77 0.36-9.77l-24.39-34.15c4.13 5.16 10.47 1.99 10.47 1.99 4.14-2.34 4.8-12.88 2.64-22.68 2.09-0.74 3.36-1.94 4.14-3.1 1.04-1.55 0.61-3.71-0.87-4.79l-10.93-7.9q-0.56-0.52-1.16-0.95c-0.86-0.6-1.95-1.35-3.16-2.19-13-8.95-43.55-29.66-43.55-29.66zm61.71 24.87c2.99 2.88 12.05 4.51 12.05 4.51-4.23 1.36-3.81 5.8-3.81 5.8z"/>
		<path class="s5" d="m1655.36 324.59c0 0-29.94 35.96 3.8 67.83 0 0-10.63 5.22-5.95 16.98 4.69 11.75 6.72 23.96 17.37 23.96 0 0 7.61 32.11 18.76 37.09 0 0 2.68 27.68-4.92 37.18l-8.26 50.57h110.09l-19.26-53.57c0 0-5.09-21.06-3.06-35.09 0 0 12.68-12.21 16.23-34.37 0 0 11.16-2.26 15.22-25.77 4.06-23.53-11.67-17.19-11.67-17.19 0 0 41.1-69.21-20.8-98.16-61.89-28.94-112.12 1.81-107.55 30.54z"/>
	</g>
</svg>