<svg version="1.2" xmlns="http://www.w3.org/2000/svg" viewBox="0 0 749.9999999999999 500" width="750" height="500">
	<defs>
		<clipPath clipPathUnits="userSpaceOnUse" id="cp1">
			<path d="m749.25 500h-750v-500h750z"/>
		</clipPath>
	</defs>
	<style>
		.s0 { fill: #471c64 } 
		.s1 { fill: #2f035e } 
		.s2 { fill: #ffb380 } 
		.s3 { fill: #ffc69e } 
		.s4 { fill: #050505 } 
		.s5 { fill: #303030 } 
		.s6 { fill: none;stroke: #111111;stroke-miterlimit:10 } 
		.s7 { fill: #ffad76 } 
		.s8 { fill: #ff9d5a } 
		.s9 { fill: #ffffff } 
		.s10 { fill: #ff9045 } 
		.s11 { fill: #f99048 } 
		.s12 { fill: #f2ca03 } 
		.s13 { fill: #efc803 } 
		.s14 { fill: #edbf00 } 
		.s15 { fill: #420591 } 
		.s16 { fill: #300377 } 
		.s17 { fill: #4807ad } 
		.s18 { fill: #370599 } 
		.s19 { opacity: .49;fill: #ffffff } 
	</style>
	<g id="BACKGROUND">
		<g id="&lt;Group&gt;">
		</g>
	</g>
	<g id="OBJECTS">
		<g id="&lt;Clip Group&gt;" clip-path="url(#cp1)">
			<g id="&lt;Group&gt;" style="opacity: .32">
			</g>
			<g id="&lt;Group&gt;" style="opacity: .69">
				<path id="&lt;Path&gt;" class="s0" d="m617.54 405.25c0 37.14-108.92 67.25-243.29 67.25-134.37 0-243.29-30.11-243.29-67.25 0-37.14 108.92-67.25 243.29-67.25 134.37 0 243.29 30.11 243.29 67.25z"/>
			</g>
			<g id="&lt;Group&gt;">
				<path id="&lt;Path&gt;" class="s1" d="m276.84 356.95l57.57-32.76h79.63l52.88 36.12c0 0-68.36 43.39-190.08-3.36z"/>
				<g id="&lt;Group&gt;">
					<g id="&lt;Group&gt;">
						<g id="&lt;Group&gt;">
							<path id="&lt;Path&gt;" class="s2" d="m393.01 200.28c-6.87-11.74-4.66-26.72-4.66-26.72h-16.11-16.11c0 0 2.23 15.09-4.73 26.84 0 0 18.9 9.71 41.43 0z"/>
							<g id="&lt;Group&gt;">
								<path id="&lt;Path&gt;" class="s3" d="m367.87 123.12c-13.01 1.9-18.89 12.38-20.24 25.02-1.17 10.99 1.1 22.71 6.93 32.21 3.3 5.39 8.5 9.95 14.73 10.99 16.17 2.68 26.22-14.92 28.62-28.56 1.81-10.25 0.04-22.16-5.73-30.97-5.3-8.1-15.31-10.01-24.31-8.69z"/>
							</g>
							<g id="&lt;Group&gt;">
								<path id="&lt;Path&gt;" class="s4" d="m397.25 165.85c0.54 0.14 1.9-0.48 2.45-0.6 1.18-0.26 2.28-0.6 3.32-1.21 2.24-1.31 3.93-3.47 4.49-5.94 0.28-1.23 0.28-2.73-0.28-3.88-0.4-0.82-1.25-1.51-2.23-1.44 1.31-0.51 2.11-1.8 2.56-3.09 1.24-3.59 0.24-7.76-2.39-10.54-0.73-0.77-1.58-1.45-2.24-2.28-1.61-2.07-0.89-4.96-0.2-7.24 1.21-3.98-0.7-9.25-4.66-11.15-3.04-1.45-6.67-1.36-9.95-0.91-2.99 0.4-5.73 1.62-8.69 2.12-3.65 0.62-7.52-0.18-10.62-2.11-1.6-0.99-2.72-2.43-4.44-3.25-1.79-0.87-3.87-1.16-5.77-0.44-2.72 1.03-5.27 3.41-5.6 6.28-0.13 1.13 0.04 2.26 0.06 3.39 0.05 2.28-0.78 3.56-2.92 4.5-0.68 0.29-1.39 0.57-2.14 0.56-1.39-0.03-2.57-0.93-3.99-0.93-1.33 0.01-2.7 0.48-3.54 1.5-0.53 0.66-0.84 1.45-1.01 2.26-0.15 0.7-0.19 1.42-0.03 2.1 0.4 1.68 2.02 2.16 3.19 3.24 2.36 2.17 2.72 7.15 0.53 9.54-12.98 14.12 5.94 21.1 5.94 21.1 0 0-3.79-14.13 1.19-17.87 2.48-1.87 5.36-3.1 5.3-6.36-0.05-2.39-1.58-6.15 1.36-7.63 2.03-1.02 4.91-0.11 5.68-2.86 0.18-0.61 0.17-1.28 0.51-1.82 2.28-3.64 7.66-0.78 10.19 0.58 3.34 1.8 6.8 3.55 10.53 4.47 1.84 0.45 3.76 0.69 5.66 0.53 0.95-0.08 1.85-0.28 2.76-0.54 1.05-0.31 1.54 0.2 1.82 1.23 0.32 1.22-0.03 2.44-0.23 3.65q-0.07 0.33-0.07 0.66c0.04 1.14 1.06 2.34 1.53 3.36 1.5 3.26 2.99 6.68 3.17 10.25 0.18 3.38-0.27 6.37-0.95 9.59 0 0-0.29 1.18-0.29 1.18z"/>
							</g>
							<g id="&lt;Group&gt;">
								<path id="&lt;Path&gt;" class="s5" d="m358.12 116.57c1.88-0.72 3.92-0.42 5.69 0.44 1.68 0.82 2.79 2.26 4.36 3.25 3.06 1.93 6.87 2.73 10.46 2.11 2.91-0.5 5.61-1.71 8.55-2.11 3.23-0.45 6.8-0.54 9.8 0.91 3.9 1.9 5.78 7.17 4.59 11.15-0.69 2.28-1.39 5.17 0.19 7.24 0.65 0.84 1.49 1.51 2.21 2.29 2.22 2.38 3.26 5.8 2.73 8.98 0.57-0.61 0.98-1.4 1.25-2.19 1.22-3.59 0.24-7.76-2.35-10.54-0.73-0.77-1.57-1.45-2.21-2.28-1.58-2.07-0.88-4.97-0.2-7.24 1.19-3.98-0.69-9.25-4.59-11.15-3-1.45-6.56-1.36-9.8-0.92-2.93 0.41-5.64 1.62-8.54 2.12-3.6 0.62-7.41-0.18-10.46-2.11-1.57-0.99-2.68-2.43-4.37-3.25-1.76-0.87-3.81-1.16-5.68-0.44-2.68 1.03-5.19 3.41-5.51 6.28q-0.01 0.11-0.02 0.22c1.03-1.23 2.44-2.2 3.9-2.76z"/>
							</g>
							<g id="&lt;Group&gt;">
								<path id="&lt;Path&gt;" class="s4" d="m368.23 148.39q0-0.39-0.14-0.75c-0.11-0.28-0.3-0.53-0.57-0.66-0.23-0.11-0.49-0.11-0.74-0.11q-2.88 0.01-5.75 0.01c-0.83 0-1.87-0.13-2.31 0.76-0.17 0.35-0.19 0.77-0.1 1.15 0.16 0.72 0.74 1.17 1.47 1.21 0.69 0.04 1.4-0.08 2.1-0.1 1.08-0.04 2.19 0.01 3.28 0.01 0.82 0.01 2.01 0.16 2.53-0.65q0.08-0.12 0.14-0.27 0.1-0.28 0.09-0.6z"/>
							</g>
							<g id="&lt;Group&gt;">
								<path id="&lt;Path&gt;" class="s4" d="m389.05 148.39q0-0.39-0.14-0.75c-0.11-0.28-0.3-0.53-0.57-0.66-0.22-0.11-0.49-0.11-0.74-0.11q-2.87 0.01-5.75 0.01c-0.82 0-1.87-0.13-2.3 0.76-0.18 0.35-0.19 0.77-0.11 1.15 0.17 0.72 0.74 1.17 1.47 1.21 0.69 0.04 1.41-0.08 2.1-0.1 1.09-0.04 2.19 0.01 3.29 0.01 0.81 0.01 2.01 0.16 2.53-0.65q0.08-0.12 0.13-0.27 0.1-0.28 0.09-0.6z"/>
							</g>
							<path id="&lt;Path&gt;" class="s6" d="m357.92 154.71c0 0 3.11 2.28 7.55 0"/>
							<path id="&lt;Path&gt;" class="s6" d="m381.1 154.71c0 0 3.1 2.28 7.55 0"/>
							<g id="&lt;Group&gt;">
								<path id="&lt;Path&gt;" class="s7" d="m373.3 150.83l-3.92 18.36h8.24z"/>
							</g>
							<g id="&lt;Group&gt;">
								<path id="&lt;Path&gt;" class="s8" d="m393.32 165.39c0 2.96-2.41 5.37-5.38 5.37-2.97 0-5.37-2.41-5.37-5.37 0-2.97 2.4-5.38 5.37-5.38 2.97 0 5.38 2.41 5.38 5.38z"/>
							</g>
							<g id="&lt;Group&gt;">
								<path id="&lt;Path&gt;" class="s8" d="m363.94 165.39c0 2.96-2.4 5.37-5.37 5.37-2.97 0-5.37-2.41-5.37-5.37 0-2.97 2.4-5.38 5.37-5.38 2.97 0 5.37 2.41 5.37 5.38z"/>
							</g>
							<g id="&lt;Group&gt;">
								<path id="&lt;Path&gt;" class="s4" d="m369.29 191.34c14.34 2.38 23.86-11.19 27.52-23.8-3.09 2.33-9.14 5.65-15.72 2.32 0 0-3.98-2.85-6.78 0.06 0 0-0.67 0.62-1.35 0.56-0.67 0.06-1.34-0.56-1.34-0.56-2.8-2.91-6.78-0.06-6.78-0.06-6.59 3.33-12.64 0.01-15.72-2.33 1.2 4.52 3.01 8.86 5.44 12.82 3.3 5.39 8.5 9.95 14.73 10.99z"/>
							</g>
							<g id="&lt;Group&gt;">
								<path id="&lt;Path&gt;" class="s5" d="m392.75 169.95c-3.59 10.36-11.07 20.64-21.85 21.59 13.44 1.15 22.39-11.87 25.91-24-1.05 0.79-2.43 1.69-4.06 2.41z"/>
							</g>
							<path id="&lt;Path&gt;" class="s9" d="m367.85 174.96c-0.56 3.06 1.46 6 4.52 6.56 3.06 0.57 6-1.45 6.56-4.51z"/>
							<g id="&lt;Group&gt;">
								<path id="&lt;Path&gt;" class="s10" d="m387.33 184.8q-0.21 0.21-0.41 0.41-0.05 0.04-0.09 0.09-0.2 0.19-0.4 0.38-0.04 0.05-0.09 0.09-0.21 0.19-0.41 0.38-0.04 0.04-0.08 0.07-0.23 0.21-0.47 0.4-0.01 0.02-0.03 0.04-0.78 0.65-1.59 1.24-0.03 0.02-0.06 0.04-0.24 0.16-0.48 0.32-0.05 0.04-0.11 0.08-0.21 0.14-0.43 0.28-0.07 0.04-0.14 0.08-0.21 0.13-0.42 0.26-0.07 0.04-0.14 0.08-0.22 0.13-0.43 0.24-0.07 0.04-0.14 0.08-0.24 0.13-0.48 0.25-0.04 0.02-0.09 0.04-0.59 0.3-1.2 0.55-0.01 0-0.02 0.01-0.28 0.12-0.57 0.22-0.07 0.03-0.14 0.06-0.23 0.08-0.46 0.16-0.09 0.03-0.19 0.06-0.21 0.07-0.42 0.13-0.11 0.04-0.21 0.06-0.21 0.07-0.42 0.12-0.11 0.03-0.21 0.05-0.22 0.06-0.43 0.11-0.11 0.02-0.21 0.04-0.23 0.05-0.47 0.09-0.09 0.02-0.17 0.04-0.65 0.11-1.31 0.18-0.09 0-0.17 0.01-0.25 0.02-0.49 0.04-0.12 0.01-0.24 0.01-0.22 0.01-0.43 0.02-0.14 0-0.27 0-0.21 0.01-0.41 0.01-0.14-0.01-0.29-0.01-0.2 0-0.4-0.01-0.15-0.01-0.3-0.02-0.2-0.01-0.4-0.03-0.15-0.01-0.3-0.02-0.21-0.02-0.43-0.05-0.14-0.01-0.27-0.03-0.3-0.04-0.59-0.09-0.06-0.01-0.12-0.02c-5.2-0.86-9.68-4.18-12.94-8.39q-0.08 1.16-0.22 2.41c3.28 4.34 7.84 7.79 13.16 8.67q0.06 0.01 0.12 0.02 0.29 0.05 0.59 0.09 0.13 0.02 0.27 0.03 0.22 0.03 0.43 0.05 0.15 0.01 0.3 0.02 0.2 0.02 0.4 0.03 0.15 0.01 0.3 0.02 0.2 0.01 0.4 0.01 0.15 0 0.29 0.01 0.2 0 0.41-0.01 0.13 0 0.27 0 0.21-0.01 0.43-0.02 0.12 0 0.24-0.01 0.24-0.02 0.49-0.04 0.08-0.01 0.17-0.01 0.66-0.07 1.31-0.18 0.08-0.02 0.17-0.04 0.24-0.04 0.47-0.09 0.1-0.02 0.21-0.04 0.21-0.05 0.43-0.11 0.1-0.02 0.21-0.05 0.21-0.06 0.42-0.12 0.1-0.02 0.21-0.06 0.21-0.06 0.42-0.13 0.1-0.03 0.19-0.06 0.23-0.08 0.46-0.16 0.07-0.03 0.14-0.06 0.29-0.1 0.57-0.22 0.01-0.01 0.02-0.01 0.61-0.25 1.2-0.55 0.05-0.02 0.09-0.04 0.24-0.12 0.48-0.25 0.07-0.04 0.14-0.08 0.21-0.11 0.43-0.24 0.07-0.04 0.14-0.08 0.21-0.13 0.42-0.26 0.07-0.04 0.14-0.08 0.22-0.14 0.43-0.28 0.06-0.04 0.11-0.08 0.24-0.15 0.47-0.32 0.04-0.02 0.07-0.04 0.81-0.59 1.59-1.24 0.02-0.02 0.04-0.04 0.23-0.19 0.46-0.4 0.04-0.03 0.08-0.07 0.2-0.19 0.41-0.38 0.05-0.04 0.09-0.09 0.2-0.19 0.4-0.38 0.04-0.05 0.09-0.09 0.2-0.2 0.41-0.41 0.03-0.04 0.06-0.07 0.55-0.57 1.07-1.18-0.16-1.23-0.26-2.39-0.4 0.45-0.81 0.88-0.03 0.03-0.06 0.07z"/>
							</g>
							<g id="&lt;Group&gt;">
								<path id="&lt;Path&gt;" class="s3" d="m347.19 158.02c-1.14-0.07-2-1.24-1.92-2.62 0.08-1.39 1.06-2.45 2.2-2.39 0.14 0.01 0.57 0.05 0.7 0.09q0.05-0.78 0.12-1.56c-0.32-0.15-0.97-0.27-1.34-0.29-1.83-0.1-3.42 1.61-3.54 3.83-0.13 2.23 1.25 4.11 3.08 4.21q0.71 0.04 1.34-0.25-0.03-0.55-0.04-1.1-0.29 0.09-0.6 0.08z"/>
							</g>
							<g id="&lt;Group&gt;">
								<path id="&lt;Path&gt;" class="s11" d="m345.27 155.4c-0.08 1.38 0.78 2.55 1.92 2.62q0.31 0.01 0.6-0.08c-0.05-1.62 0.28-3.22 0.38-4.84-0.13-0.04-0.56-0.08-0.7-0.09-1.14-0.06-2.12 1-2.2 2.39z"/>
							</g>
						</g>
						<g id="&lt;Group&gt;">
							<g id="&lt;Group&gt;">
								<path id="&lt;Path&gt;" class="s3" d="m399.75 153.15c-0.5 0-1.04 0.14-1.47 0.38 0.03 0.5 0.14 0.99 0.15 1.49q0.33-0.14 0.69-0.14c1.14 0 2.07 1.12 2.07 2.5 0 1.39-0.93 2.51-2.07 2.51q-0.42 0-0.79-0.19-0.04 0.53-0.09 1.06 0.69 0.43 1.51 0.44c1.83 0 3.31-1.8 3.31-4.02 0-2.23-1.48-4.03-3.31-4.03z"/>
							</g>
							<g id="&lt;Group&gt;">
								<path id="&lt;Path&gt;" class="s11" d="m398.33 159.7q0.37 0.19 0.79 0.19c1.14 0 2.07-1.12 2.07-2.51 0-1.38-0.93-2.5-2.07-2.5q-0.36 0-0.69 0.14 0.07 2.36-0.1 4.68z"/>
							</g>
						</g>
					</g>
					<path id="&lt;Path&gt;" class="s2" d="m534.44 263.57c-0.6-0.92-1.79-1.17-2.73-0.63l1.78-1.17c0.95-0.62 1.21-1.89 0.59-2.83-0.62-0.95-1.89-1.21-2.84-0.59l-3.2 2.1c0.79-0.66 1.01-1.8 0.43-2.67-0.62-0.95-1.89-1.21-2.84-0.59l-11.79 7.75c0.02-1.38-0.25-2.88-1.15-4.2-1.5-2.22-4.23-3.26-8.1-3.11-1.18 0.04-2.1 1.04-2.05 2.22 0.04 1.18 1.04 2.1 2.22 2.05 1.58-0.06 3.62 0.1 4.39 1.23 0.9 1.31 0.13 3.85-0.22 4.63-0.06 0.15-0.07 0.31-0.1 0.47l-3.72 2.44q-0.42-0.21-0.92-0.22c-0.85 0-3.48-0.29-4.33-1.64-0.73-1.16-0.07-3.1 0.62-4.52 0.51-1.06 0.06-2.34-1-2.85-1.07-0.51-2.35-0.06-2.85 1-1.69 3.5-1.81 6.42-0.37 8.67 0.95 1.5 2.41 2.36 3.82 2.87l-1.18 0.78-33.81 13.34c-5.13 1.79-5.44 0.27-5.44 0.27-0.41-0.3-0.63-0.79-0.83-1.25-3.32-7.69-5.68-15.71-8.75-23.49q-0.13-0.33-0.26-0.66-1 0.63-2 1.27-4.94 3.15-9.98 6.16c-2.03 1.21-4.08 2.54-6.26 3.55l18.6 29.42c6.43 7.32 12.98 4.84 12.98 4.84l42.26-23.16q0.01 0.02 0.02 0.03l28.43-18.68c0.94-0.62 1.2-1.89 0.58-2.83z"/>
					<g id="&lt;Group&gt;">
						<path id="&lt;Path&gt;" class="s8" d="m534.22 263.27l-28.23 18.56q-0.01-0.02-0.02-0.03l-42.27 23.15c0 0-6.55 2.48-12.98-4.83l-17.17-27.17q-0.97 0.53-1.97 1l18.6 29.42c6.43 7.32 12.98 4.84 12.98 4.84l42.26-23.16q0.01 0.02 0.02 0.03l28.43-18.68c0.95-0.62 1.21-1.89 0.59-2.83q-0.11-0.16-0.24-0.3z"/>
					</g>
					<path id="&lt;Path&gt;" class="s2" d="m214.04 258.79c0.6-0.91 1.8-1.17 2.73-0.63l-1.77-1.17c-0.95-0.62-1.21-1.89-0.59-2.83 0.62-0.95 1.89-1.21 2.83-0.59l3.2 2.11c-0.79-0.66-1-1.8-0.42-2.68 0.62-0.95 1.89-1.21 2.83-0.59l11.79 7.75c-0.01-1.38 0.26-2.87 1.16-4.2 1.49-2.21 4.22-3.26 8.1-3.1 1.18 0.04 2.1 1.04 2.05 2.22-0.05 1.18-1.04 2.09-2.22 2.05-1.58-0.07-3.62 0.1-4.39 1.22-0.9 1.32-0.13 3.85 0.21 4.63 0.07 0.16 0.07 0.32 0.1 0.47l3.72 2.45q0.42-0.22 0.92-0.23c0.86 0.01 3.49-0.29 4.34-1.64 0.73-1.15 0.06-3.09-0.62-4.52-0.51-1.06-0.06-2.34 1-2.85 1.07-0.51 2.35-0.06 2.85 1 1.68 3.5 1.81 6.42 0.37 8.67-0.96 1.5-2.41 2.36-3.83 2.87l1.19 0.78 33.81 13.35c5.12 1.79 5.44 0.26 5.44 0.26 0.41-0.3 0.63-0.78 0.83-1.25 3.31-7.69 5.68-15.7 8.74-23.48q0.13-0.34 0.26-0.67 1 0.64 2 1.27 4.95 3.16 9.98 6.17c2.04 1.21 4.09 2.54 6.27 3.54l-18.6 29.43c-6.43 7.31-12.98 4.83-12.98 4.83l-42.26-23.15q-0.01 0.01-0.02 0.03l-28.43-18.68c-0.95-0.63-1.21-1.89-0.59-2.84z"/>
					<g id="&lt;Group&gt;">
						<path id="&lt;Path&gt;" class="s8" d="m214.28 258.5l28.23 18.55q0.01-0.01 0.02-0.03l42.27 23.16c0 0 6.55 2.48 12.98-4.84l17.17-27.17q0.97 0.54 1.97 1l-18.6 29.43c-6.43 7.31-12.98 4.83-12.98 4.83l-42.26-23.15q-0.01 0.01-0.02 0.03l-28.43-18.68c-0.95-0.63-1.21-1.89-0.59-2.84q0.11-0.16 0.24-0.29z"/>
					</g>
					<g id="&lt;Group&gt;">
						<g id="&lt;Group&gt;">
							<path id="&lt;Path&gt;" class="s12" d="m425.81 334.63l-1.72-69.78c0.04-1.11 0.22-1.69 0.5-1.87l6.96 11.01q1.27-0.6 2.48-1.3 2.8-1.61 5.56-3.28 5.17-3.15 10.27-6.42-3.56-9.14-7.13-18.28-0.03-0.07-0.06-0.15c-7.42-30.75-22.75-39.18-22.74-39.15-2.02-1-2.33-1.02-4.38-1.83-2.85-1.43-6.18-2.3-9.22-3.23q-4.59-1.41-9.25-2.55c-2.02-0.49-4.04-0.85-6.01-1.5q0.82 2.04 1.96 3.99l-0.18 0.12c-22.53 9.71-41.43 0-41.43 0q1.33-2.27 2.25-4.66-0.4 0.07-0.77 0.14c-5.43 0.95-10.77 2.89-15.92 4.81 0 0-12.35 5.49-12.35 5.52-0.68 0.39-15.44 9.11-22.69 39.15q-2.41 6.19-4.83 12.38 3.15 1.71 6.22 3.55 3.83 2.32 7.47 4.93 1.81 1.31 3.64 2.61c0.77 0.54 1.58 1.22 2.44 1.73q1.58-2.37 3.16-4.74c0.23-0.35 3.32-4.37 3.12-4.68 1.19 1.85 0.71 4.57 0.71 6.92 0 32.05-0.41 31.68-0.41 63.73 0 0 45.34 33.93 102.35 2.83z"/>
						</g>
						<g id="&lt;Group&gt;">
							<path id="&lt;Path&gt;" class="s13" d="m345.91 197.6l5.51 2.81 2.25-4.66c0 0-5.64 0.94-7.76 1.85z"/>
						</g>
						<g id="&lt;Group&gt;">
							<path id="&lt;Path&gt;" class="s13" d="m393.03 200.29l4.05-2.49-6.01-1.5z"/>
						</g>
						<g id="&lt;Group&gt;">
							<path id="&lt;Path&gt;" class="s14" d="m323.46 331.8c0 0 45.24 33.84 102.15 2.94-45.69 0.88-101.83-72.04-101.83-72.04l0.18 1.74c0.03 1.2-0.09 2.46-0.09 3.64 0 32.04-0.41 31.68-0.41 63.72z"/>
						</g>
					</g>
				</g>
				<path id="&lt;Path&gt;" class="s15" d="m455.39 319.31c3.73-1.88 7.69-3.22 12.09-3.51 9.16-0.61 18.11 3.31 22.92 11.32 0 0 9.13 17.83-10.01 31.32 0 0-74.83 64.39-149.65 62.65v-14.36q10.42-7.36 20.84-14.72 22.52-15.91 45.05-31.82 21.53-15.2 43.05-30.41c5.14-3.63 10.16-7.66 15.71-10.47z"/>
				<path id="&lt;Path&gt;" class="s16" d="m482.92 349.67c0 0-75.59 65.04-152.14 64.94 0 3.21 0 6.48 0 6.48 74.83 1.74 149.66-62.65 149.66-62.65 8.71-6.14 11.57-13.18 12.09-19.03-1.93 3.47-4.97 6.99-9.61 10.26z"/>
				<path id="&lt;Path&gt;" class="s17" d="m287 319.31c-3.73-1.88-7.69-3.22-12.09-3.51-9.16-0.61-18.11 3.31-22.92 11.32 0 0-9.13 17.83 10.01 31.32 0 0 74.83 64.39 149.66 62.65v-14.36q-10.43-7.36-20.85-14.72-22.52-15.91-45.04-31.82-21.53-15.2-43.06-30.41c-5.14-3.63-10.16-7.66-15.71-10.47z"/>
				<path id="&lt;Path&gt;" class="s18" d="m249.87 338.18c0.22 6.08 2.82 13.7 12.17 20.29 0 0 74.83 64.39 149.65 62.65 0 0 0-3.08 0-5.99-78.53-4.49-153.49-68.99-153.49-68.99-3.63-2.55-6.33-5.25-8.33-7.96z"/>
				<path id="&lt;Path&gt;" class="s2" d="m411.66 421.09l6.67 1.69q16.03 10.75 32.05 21.54c0.46 0.3 0.94 0.62 1.48 0.72 0.43 0.09 0.98-0.05 1.55-0.28 1.23-0.5 1.58-2.08 0.69-3.06-3.22-3.55-8.89-11.53-9.52-12.42-2.29-3.22-5.07-6.91-6.08-10.81-1.31-5.08-0.97-9.76-5.62-13.43-5.3-4.18-9.34-0.99-14.55 0.64l-6.67 1.05z"/>
				<path id="&lt;Path&gt;" class="s2" d="m330.74 421.09l-6.68 1.69q-16.03 10.75-32.05 21.54c-0.46 0.3-0.93 0.62-1.48 0.72-0.43 0.09-0.98-0.05-1.55-0.28-1.23-0.5-1.58-2.08-0.69-3.06 3.22-3.55 8.89-11.53 9.52-12.42 2.29-3.22 5.07-6.91 6.08-10.81 1.32-5.08 0.97-9.76 5.62-13.43 5.3-4.18 9.34-0.99 14.55 0.64l6.68 1.05z"/>
				<g id="&lt;Group&gt;">
					<path id="&lt;Path&gt;" class="s8" d="m291.77 441.7c3.21-3.55 8.88-11.53 9.51-12.42 2.3-3.22 5.07-6.91 6.08-10.81 1.32-5.08 0.97-9.76 5.62-13.43 1.31-1.03 2.54-1.61 3.73-1.88-2.29-0.45-4.59-0.18-7.2 1.88-4.65 3.67-4.3 8.35-5.62 13.43-1.01 3.9-3.79 7.59-6.08 10.81-0.63 0.89-6.3 8.87-9.52 12.42-0.89 0.98-0.54 2.56 0.69 3.06 0.57 0.23 1.12 0.37 1.55 0.28 0.5-0.09 0.93-0.36 1.35-0.64-0.74-0.68-0.85-1.89-0.11-2.7z"/>
				</g>
				<g id="&lt;Group&gt;">
					<path id="&lt;Path&gt;" class="s8" d="m450.63 441.7c-3.22-3.55-8.89-11.53-9.52-12.42-2.29-3.22-5.07-6.91-6.08-10.81-1.32-5.08-0.97-9.76-5.62-13.43-1.31-1.03-2.54-1.61-3.73-1.88 2.29-0.45 4.59-0.18 7.2 1.88 4.65 3.67 4.31 8.35 5.62 13.43 1.01 3.9 3.79 7.59 6.08 10.81 0.63 0.89 6.3 8.87 9.52 12.42 0.89 0.98 0.54 2.56-0.69 3.06-0.57 0.23-1.12 0.36-1.55 0.28-0.5-0.09-0.93-0.36-1.35-0.64 0.74-0.68 0.85-1.89 0.12-2.7z"/>
				</g>
			</g>
			<g id="&lt;Group&gt;">
				<path id="&lt;Path&gt;" class="s19" d="m633.08 85.47c0 1.66-1.34 3-3 3-1.65 0-3-1.34-3-3 0-1.66 1.35-3 3-3 1.66 0 3 1.34 3 3z"/>
				<path id="&lt;Path&gt;" class="s19" d="m691.77 27.14c0 1.66-1.34 3-3 3-1.65 0-3-1.34-3-3 0-1.65 1.35-2.99 3-2.99 1.66 0 3 1.34 3 2.99z"/>
				<path id="&lt;Path&gt;" class="s19" d="m723.75 70.47c0 1.65-1.35 3-3 3-1.66 0-3-1.35-3-3 0-1.66 1.34-3 3-3 1.65 0 3 1.34 3 3z"/>
				<path id="&lt;Path&gt;" class="s19" d="m633.08 28.48c0 1.65-1.34 2.99-3 2.99-1.65 0-3-1.34-3-2.99 0-1.66 1.35-3 3-3 1.66 0 3 1.34 3 3z"/>
				<path id="&lt;Path&gt;" class="s19" d="m573.44 94.71c0 1.66-1.35 3-3 3-1.66 0-3-1.34-3-3 0-1.65 1.34-2.99 3-2.99 1.65 0 3 1.34 3 2.99z"/>
				<path id="&lt;Path&gt;" class="s19" d="m485.38 32.15c-1.39 0.91-3.25 0.53-4.15-0.86-0.91-1.38-0.52-3.24 0.86-4.15 1.38-0.91 3.24-0.52 4.15 0.86 0.91 1.39 0.52 3.25-0.86 4.15z"/>
				<path id="&lt;Path&gt;" class="s19" d="m676.77 162.73c0 1.66-1.34 3-3 3-1.66 0-3-1.34-3-3 0-1.66 1.34-3 3-3 1.66 0 3 1.34 3 3z"/>
				<path id="&lt;Path&gt;" class="s19" d="m611.61 158.59c0.62 1.54-0.11 3.29-1.64 3.92-1.53 0.62-3.29-0.11-3.91-1.64-0.63-1.53 0.1-3.28 1.63-3.91 1.54-0.63 3.29 0.1 3.92 1.63z"/>
				<path id="&lt;Path&gt;" class="s19" d="m717.75 124.95c0 1.65-1.34 3-3 3-1.66 0-3-1.35-3-3 0-1.66 1.34-3 3-3 1.66 0 3 1.34 3 3z"/>
				<path id="&lt;Path&gt;" class="s19" d="m540.48 146.88c0.93 1.37 0.58 3.23-0.79 4.17-1.36 0.93-3.23 0.58-4.16-0.79-0.94-1.36-0.59-3.23 0.78-4.16 1.37-0.94 3.23-0.59 4.17 0.78z"/>
				<path id="&lt;Path&gt;" class="s19" d="m551.08 46.81c0 1.66-1.34 3-3 3-1.65 0-3-1.34-3-3 0-1.66 1.35-3 3-3 1.66 0 3 1.34 3 3z"/>
			</g>
			<path id="&lt;Path&gt;" class="s19" d="m252.02 34.48c0 1.66 1.34 3 3 3 1.65 0 3-1.34 3-3 0-1.65-1.35-3-3-3-1.66 0-3 1.35-3 3z"/>
			<path id="&lt;Path&gt;" class="s19" d="m40.52 11.82c0 1.65 1.35 3 3 3 1.66 0 3-1.35 3-3 0-1.66-1.34-3-3-3-1.65 0-3 1.34-3 3z"/>
			<path id="&lt;Path&gt;" class="s19" d="m49.19 70.48c0 1.65 1.34 3 3 3 1.66 0 3-1.35 3-3 0-1.66-1.34-3-3-3-1.66 0-3 1.34-3 3z"/>
			<path id="&lt;Path&gt;" class="s19" d="m120.55 31.48c0 1.66 1.34 3 3 3 1.65 0 2.99-1.34 2.99-3 0-1.65-1.34-2.99-2.99-2.99-1.66 0-3 1.34-3 2.99z"/>
			<path id="&lt;Path&gt;" class="s19" d="m183.19 114.94c0 1.66 1.34 3 3 3 1.65 0 3-1.34 3-3 0-1.65-1.35-3-3-3-1.66 0-3 1.35-3 3z"/>
			<path id="&lt;Path&gt;" class="s19" d="m123.44 83.53c0 1.65 1.34 2.99 3 2.99 1.65 0 3-1.34 3-2.99 0-1.66-1.35-3-3-3-1.66 0-3 1.34-3 3z"/>
			<path id="&lt;Path&gt;" class="s19" d="m15.44 120.28c0 1.65 1.34 2.99 3 2.99 1.65 0 3-1.34 3-2.99 0-1.66-1.35-3-3-3-1.66 0-3 1.34-3 3z"/>
			<path id="&lt;Path&gt;" class="s19" d="m73.86 145.12c0 1.65 1.34 2.99 3 2.99 1.66 0 3-1.34 3-2.99 0-1.66-1.34-3-3-3-1.66 0-3 1.34-3 3z"/>
			<path id="&lt;Path&gt;" class="s19" d="m144.59 183.34c0 1.66 1.34 3 3 3 1.65 0 3-1.34 3-3 0-1.65-1.35-3-3-3-1.66 0-3 1.35-3 3z"/>
			<path id="&lt;Path&gt;" class="s19" d="m213.11 177.15c0 1.66 1.34 3 3 3 1.65 0 2.99-1.34 2.99-3 0-1.65-1.34-3-2.99-3-1.66 0-3 1.35-3 3z"/>
			<path id="&lt;Path&gt;" class="s19" d="m202.55 49.82c0 1.65 1.34 3 3 3 1.65 0 2.99-1.35 2.99-3 0-1.66-1.34-3-2.99-3-1.66 0-3 1.34-3 3z"/>
		</g>
	</g>
</svg>