<svg version="1.2" xmlns="http://www.w3.org/2000/svg" viewBox="0 0 3019 3004" width="3019" height="3004">
	<defs>
		<clipPath clipPathUnits="userSpaceOnUse" id="cp1">
			<path d="m556 294h1983v2136h-1983z"/>
		</clipPath>
		<clipPath clipPathUnits="userSpaceOnUse" id="cp2">
			<path d="m2537.86 1400l-14.5 144.62q-80.76 435.68-402.42 686.61-323.81 250.63-747.35 185-403.39-84.63-634.14-430.21-73.9-111.69-119.56-241.83l-37.48-133.44q-29.84-137.39-24.66-285.34 27.71-453.57 318.43-744.5 290.72-290.93 711.86-286.55 420.29 27.31 688.29 339.28 268.02 311.97 261.53 766.36z"/>
		</clipPath>
		<clipPath clipPathUnits="userSpaceOnUse" id="cp3">
			<path d="m2537.86 1400l-14.5 144.62q-80.76 435.68-402.42 686.61-323.81 250.63-747.35 185-403.39-84.63-634.14-430.21-73.9-111.69-119.56-241.83l-37.48-133.44q-29.84-137.39-24.66-285.34 27.71-453.57 318.43-744.5 290.72-290.93 711.86-286.55 420.29 27.31 688.29 339.28 268.02 311.97 261.53 766.36z"/>
		</clipPath>
		<linearGradient id="g1" x2="1" gradientUnits="userSpaceOnUse" gradientTransform="matrix(0,2168.544,-1987.888,0,1579.085,291.44)">
			<stop offset="0" stop-color="#fee88e"/>
			<stop offset=".5" stop-color="#fee88e"/>
			<stop offset=".563" stop-color="#fee88e"/>
			<stop offset=".594" stop-color="#fee88e"/>
			<stop offset=".602" stop-color="#fee88e"/>
			<stop offset=".605" stop-color="#fee88d"/>
			<stop offset=".609" stop-color="#fee88d"/>
			<stop offset=".613" stop-color="#fee88b"/>
			<stop offset=".617" stop-color="#fee88a"/>
			<stop offset=".621" stop-color="#fee889"/>
			<stop offset=".625" stop-color="#fee787"/>
			<stop offset=".629" stop-color="#fee786"/>
			<stop offset=".633" stop-color="#fee785"/>
			<stop offset=".637" stop-color="#fee783"/>
			<stop offset=".641" stop-color="#fee782"/>
			<stop offset=".645" stop-color="#fee781"/>
			<stop offset=".648" stop-color="#fee77f"/>
			<stop offset=".652" stop-color="#fee77e"/>
			<stop offset=".656" stop-color="#fee67d"/>
			<stop offset=".66" stop-color="#fee67b"/>
			<stop offset=".664" stop-color="#fee67a"/>
			<stop offset=".668" stop-color="#fee678"/>
			<stop offset=".672" stop-color="#fee677"/>
			<stop offset=".676" stop-color="#fee676"/>
			<stop offset=".68" stop-color="#fee674"/>
			<stop offset=".684" stop-color="#fee673"/>
			<stop offset=".688" stop-color="#fee572"/>
			<stop offset=".691" stop-color="#fee570"/>
			<stop offset=".695" stop-color="#fee56f"/>
			<stop offset=".699" stop-color="#fee56e"/>
			<stop offset=".703" stop-color="#fee56c"/>
			<stop offset=".707" stop-color="#fee56b"/>
			<stop offset=".711" stop-color="#fee56a"/>
			<stop offset=".715" stop-color="#fee568"/>
			<stop offset=".719" stop-color="#fee467"/>
			<stop offset=".723" stop-color="#fee466"/>
			<stop offset=".727" stop-color="#fee464"/>
			<stop offset=".73" stop-color="#fee463"/>
			<stop offset=".734" stop-color="#fee462"/>
			<stop offset=".738" stop-color="#fee460"/>
			<stop offset=".742" stop-color="#fee45f"/>
			<stop offset=".746" stop-color="#fee45e"/>
			<stop offset=".75" stop-color="#fee35c"/>
			<stop offset=".754" stop-color="#fee35b"/>
			<stop offset=".758" stop-color="#fee35a"/>
			<stop offset=".762" stop-color="#fee358"/>
			<stop offset=".766" stop-color="#fee357"/>
			<stop offset=".77" stop-color="#fee356"/>
			<stop offset=".773" stop-color="#fee354"/>
			<stop offset=".777" stop-color="#fee353"/>
			<stop offset=".781" stop-color="#fde251"/>
			<stop offset=".785" stop-color="#fde250"/>
			<stop offset=".789" stop-color="#fde24f"/>
			<stop offset=".793" stop-color="#fde24d"/>
			<stop offset=".797" stop-color="#fde24c"/>
			<stop offset=".801" stop-color="#fde24b"/>
			<stop offset=".805" stop-color="#fde249"/>
			<stop offset=".809" stop-color="#fde248"/>
			<stop offset=".813" stop-color="#fde147"/>
			<stop offset=".816" stop-color="#fde145"/>
			<stop offset=".82" stop-color="#fde144"/>
			<stop offset=".824" stop-color="#fde143"/>
			<stop offset=".828" stop-color="#fde141"/>
			<stop offset=".832" stop-color="#fde140"/>
			<stop offset=".836" stop-color="#fde13f"/>
			<stop offset=".84" stop-color="#fde13d"/>
			<stop offset=".844" stop-color="#fde03c"/>
			<stop offset=".848" stop-color="#fde03b"/>
			<stop offset=".852" stop-color="#fde039"/>
			<stop offset=".855" stop-color="#fde038"/>
			<stop offset=".859" stop-color="#fde037"/>
			<stop offset=".863" stop-color="#fde035"/>
			<stop offset=".867" stop-color="#fde034"/>
			<stop offset=".871" stop-color="#fde033"/>
			<stop offset=".875" stop-color="#fddf31"/>
			<stop offset=".879" stop-color="#fddf30"/>
			<stop offset=".883" stop-color="#fddf2f"/>
			<stop offset=".887" stop-color="#fddf2d"/>
			<stop offset=".891" stop-color="#fddf2c"/>
			<stop offset=".895" stop-color="#fddf2a"/>
			<stop offset=".898" stop-color="#fddf29"/>
			<stop offset=".902" stop-color="#fddf28"/>
			<stop offset=".906" stop-color="#fddf26"/>
			<stop offset=".91" stop-color="#fdde25"/>
			<stop offset=".914" stop-color="#fdde24"/>
			<stop offset=".918" stop-color="#fdde22"/>
			<stop offset=".922" stop-color="#fdde21"/>
			<stop offset=".926" stop-color="#fdde20"/>
			<stop offset=".93" stop-color="#fdde1e"/>
			<stop offset=".934" stop-color="#fdde1d"/>
			<stop offset=".938" stop-color="#fdde1c"/>
			<stop offset=".941" stop-color="#fddd1a"/>
			<stop offset=".945" stop-color="#fddd19"/>
			<stop offset=".949" stop-color="#fddd18"/>
			<stop offset=".953" stop-color="#fddd16"/>
			<stop offset=".969" stop-color="#fddd16"/>
			<stop offset="1" stop-color="#fddd16"/>
		</linearGradient>
		<clipPath clipPathUnits="userSpaceOnUse" id="cp4">
			<path d="m1553 563h664v1202h-664z"/>
		</clipPath>
		<clipPath clipPathUnits="userSpaceOnUse" id="cp5">
			<path d="m1553.22 564.06l5.1 0.08q73.77-4.5 103.71 82.36 2.07 10.53 0.75 21.4l-6.69 43.69 1.23 5.66q11.39 7.05 10.76 14.07l-3.97 52.71q-0.89 8.42-4.17 11.14-13.48-0.04-22.69 14.53-10.36 19.37-13.81 35.54-11.7 40.11 5.38 75.88 16.29 23.73 48.69 35.42l31.92 9.88 96.61 19.67q20.94 9.08 32.9 37.28 8.39 16.45 14.41 58.13 0.82 4.55 2.28 28.89 0.93 96.6 3.11 101.68 13.86 71.59 23.95 143.36 24.01 8.54 56.52 41.76 28.85 28.06 127.57 142.08 71.16-1.96 93.3 5.9 11.65 4.33 18.7 10.76l31.83 28.31q5.81 5.77 5.72 9.37-11.13 23.85-52.49-14.32 53.83 48.36 21.52 95.62-33.45 34.9-155.22 76.71-29.9 9.28-105.92 11.77l-369.57 0.93z"/>
		</clipPath>
		<clipPath clipPathUnits="userSpaceOnUse" id="cp6">
			<path d="m1553.22 564.06l5.1 0.08q73.77-4.5 103.71 82.36 2.07 10.53 0.75 21.4l-6.69 43.69 1.23 5.66q11.39 7.05 10.76 14.07l-3.97 52.71q-0.89 8.42-4.17 11.14-13.48-0.04-22.69 14.53-10.36 19.37-13.81 35.54-11.7 40.11 5.38 75.88 16.29 23.73 48.69 35.42l31.92 9.88 96.61 19.67q20.94 9.08 32.9 37.28 8.39 16.45 14.41 58.13 0.82 4.55 2.28 28.89 0.93 96.6 3.11 101.68 13.86 71.59 23.95 143.36 24.01 8.54 56.52 41.76 28.85 28.06 127.57 142.08 71.16-1.96 93.3 5.9 11.65 4.33 18.7 10.76l31.83 28.31q5.81 5.77 5.72 9.37-11.13 23.85-52.49-14.32 53.83 48.36 21.52 95.62-33.45 34.9-155.22 76.71-29.9 9.28-105.92 11.77l-369.57 0.93z"/>
		</clipPath>
		<linearGradient id="g2" x2="1" gradientUnits="userSpaceOnUse" gradientTransform="matrix(-680.281,1193.426,-1018.178,-580.386,2147.644,521.953)">
			<stop offset="0" stop-color="#fae58c"/>
			<stop offset=".004" stop-color="#f9e48b"/>
			<stop offset=".008" stop-color="#f8e28b"/>
			<stop offset=".012" stop-color="#f7e18a"/>
			<stop offset=".016" stop-color="#f5e089"/>
			<stop offset=".02" stop-color="#f4df88"/>
			<stop offset=".023" stop-color="#f3de88"/>
			<stop offset=".027" stop-color="#f2dd87"/>
			<stop offset=".031" stop-color="#f0db86"/>
			<stop offset=".035" stop-color="#efda86"/>
			<stop offset=".039" stop-color="#eed985"/>
			<stop offset=".043" stop-color="#ecd884"/>
			<stop offset=".047" stop-color="#ebd783"/>
			<stop offset=".051" stop-color="#ead683"/>
			<stop offset=".055" stop-color="#e9d582"/>
			<stop offset=".059" stop-color="#e7d381"/>
			<stop offset=".063" stop-color="#e6d281"/>
			<stop offset=".066" stop-color="#e5d180"/>
			<stop offset=".07" stop-color="#e4d07f"/>
			<stop offset=".074" stop-color="#e2cf7f"/>
			<stop offset=".078" stop-color="#e1ce7e"/>
			<stop offset=".082" stop-color="#e0cc7d"/>
			<stop offset=".086" stop-color="#dfcb7c"/>
			<stop offset=".09" stop-color="#ddca7c"/>
			<stop offset=".094" stop-color="#dcc97b"/>
			<stop offset=".098" stop-color="#dbc87a"/>
			<stop offset=".102" stop-color="#d9c77a"/>
			<stop offset=".105" stop-color="#d8c579"/>
			<stop offset=".109" stop-color="#d7c478"/>
			<stop offset=".113" stop-color="#d6c377"/>
			<stop offset=".117" stop-color="#d4c277"/>
			<stop offset=".121" stop-color="#d3c176"/>
			<stop offset=".125" stop-color="#d2c075"/>
			<stop offset=".129" stop-color="#d1bf75"/>
			<stop offset=".133" stop-color="#cfbd74"/>
			<stop offset=".137" stop-color="#cebc73"/>
			<stop offset=".141" stop-color="#cdbb72"/>
			<stop offset=".145" stop-color="#ccba72"/>
			<stop offset=".148" stop-color="#cab971"/>
			<stop offset=".152" stop-color="#c9b870"/>
			<stop offset=".156" stop-color="#c8b670"/>
			<stop offset=".16" stop-color="#c6b56f"/>
			<stop offset=".164" stop-color="#c5b46e"/>
			<stop offset=".168" stop-color="#c4b36e"/>
			<stop offset=".172" stop-color="#c3b26d"/>
			<stop offset=".176" stop-color="#c1b16c"/>
			<stop offset=".18" stop-color="#c0af6b"/>
			<stop offset=".184" stop-color="#bfae6b"/>
			<stop offset=".188" stop-color="#bead6a"/>
			<stop offset=".191" stop-color="#bcac69"/>
			<stop offset=".195" stop-color="#bbab69"/>
			<stop offset=".199" stop-color="#baaa68"/>
			<stop offset=".203" stop-color="#b9a967"/>
			<stop offset=".207" stop-color="#b7a766"/>
			<stop offset=".211" stop-color="#b6a666"/>
			<stop offset=".215" stop-color="#b5a565"/>
			<stop offset=".219" stop-color="#b3a464"/>
			<stop offset=".223" stop-color="#b2a364"/>
			<stop offset=".227" stop-color="#b1a263"/>
			<stop offset=".23" stop-color="#b0a062"/>
			<stop offset=".234" stop-color="#ae9f61"/>
			<stop offset=".238" stop-color="#ad9e61"/>
			<stop offset=".242" stop-color="#ac9d60"/>
			<stop offset=".246" stop-color="#ab9c5f"/>
			<stop offset=".25" stop-color="#a99b5f"/>
			<stop offset=".254" stop-color="#a8995e"/>
			<stop offset=".258" stop-color="#a7985d"/>
			<stop offset=".262" stop-color="#a6975d"/>
			<stop offset=".266" stop-color="#a4965c"/>
			<stop offset=".27" stop-color="#a3955b"/>
			<stop offset=".273" stop-color="#a2945a"/>
			<stop offset=".277" stop-color="#a0935a"/>
			<stop offset=".281" stop-color="#9f9159"/>
			<stop offset=".285" stop-color="#9e9058"/>
			<stop offset=".289" stop-color="#9d8f58"/>
			<stop offset=".293" stop-color="#9b8e57"/>
			<stop offset=".297" stop-color="#9a8d56"/>
			<stop offset=".301" stop-color="#998c55"/>
			<stop offset=".305" stop-color="#988a55"/>
			<stop offset=".309" stop-color="#968954"/>
			<stop offset=".313" stop-color="#958853"/>
			<stop offset=".316" stop-color="#948753"/>
			<stop offset=".32" stop-color="#938652"/>
			<stop offset=".324" stop-color="#918551"/>
			<stop offset=".328" stop-color="#908450"/>
			<stop offset=".332" stop-color="#8f8250"/>
			<stop offset=".336" stop-color="#8d814f"/>
			<stop offset=".34" stop-color="#8c804e"/>
			<stop offset=".344" stop-color="#8b7f4e"/>
			<stop offset=".348" stop-color="#8a7e4d"/>
			<stop offset=".352" stop-color="#887d4c"/>
			<stop offset=".355" stop-color="#877b4c"/>
			<stop offset=".359" stop-color="#867a4b"/>
			<stop offset=".363" stop-color="#85794a"/>
			<stop offset=".367" stop-color="#837849"/>
			<stop offset=".371" stop-color="#827749"/>
			<stop offset=".375" stop-color="#817648"/>
			<stop offset=".379" stop-color="#807447"/>
			<stop offset=".383" stop-color="#7e7347"/>
			<stop offset=".387" stop-color="#7d7246"/>
			<stop offset=".391" stop-color="#7c7145"/>
			<stop offset=".395" stop-color="#7a7044"/>
			<stop offset=".398" stop-color="#796f44"/>
			<stop offset=".402" stop-color="#786e43"/>
			<stop offset=".406" stop-color="#776c42"/>
			<stop offset=".41" stop-color="#756b42"/>
			<stop offset=".414" stop-color="#746a41"/>
			<stop offset=".418" stop-color="#736940"/>
			<stop offset=".422" stop-color="#726840"/>
			<stop offset=".426" stop-color="#70673f"/>
			<stop offset=".43" stop-color="#6f653e"/>
			<stop offset=".434" stop-color="#6e643d"/>
			<stop offset=".438" stop-color="#6d633d"/>
			<stop offset=".441" stop-color="#6b623c"/>
			<stop offset=".445" stop-color="#6a613b"/>
			<stop offset=".449" stop-color="#69603b"/>
			<stop offset=".453" stop-color="#675e3a"/>
			<stop offset=".457" stop-color="#665d39"/>
			<stop offset=".461" stop-color="#655c38"/>
			<stop offset=".465" stop-color="#645b38"/>
			<stop offset=".469" stop-color="#625a37"/>
			<stop offset=".473" stop-color="#615936"/>
			<stop offset=".477" stop-color="#605836"/>
			<stop offset=".48" stop-color="#5f5635"/>
			<stop offset=".484" stop-color="#5d5534"/>
			<stop offset=".488" stop-color="#5c5433"/>
			<stop offset=".492" stop-color="#5b5333"/>
			<stop offset=".496" stop-color="#5a5232"/>
			<stop offset=".5" stop-color="#585131"/>
			<stop offset=".504" stop-color="#574f31"/>
			<stop offset=".508" stop-color="#564e30"/>
			<stop offset=".512" stop-color="#544d2f"/>
			<stop offset=".516" stop-color="#534c2f"/>
			<stop offset=".52" stop-color="#524b2e"/>
			<stop offset=".523" stop-color="#514a2d"/>
			<stop offset=".527" stop-color="#4f492c"/>
			<stop offset=".531" stop-color="#4e472c"/>
			<stop offset=".535" stop-color="#4d462b"/>
			<stop offset=".539" stop-color="#4c452a"/>
			<stop offset=".543" stop-color="#4a442a"/>
			<stop offset=".547" stop-color="#494329"/>
			<stop offset=".551" stop-color="#484228"/>
			<stop offset=".555" stop-color="#474027"/>
			<stop offset=".559" stop-color="#453f27"/>
			<stop offset=".563" stop-color="#443e26"/>
			<stop offset=".566" stop-color="#433d25"/>
			<stop offset=".57" stop-color="#413c25"/>
			<stop offset=".574" stop-color="#403b24"/>
			<stop offset=".578" stop-color="#3f3923"/>
			<stop offset=".582" stop-color="#3e3822"/>
			<stop offset=".586" stop-color="#3c3722"/>
			<stop offset=".59" stop-color="#3b3621"/>
			<stop offset=".594" stop-color="#3a3520"/>
			<stop offset=".598" stop-color="#393420"/>
			<stop offset=".602" stop-color="#37331f"/>
			<stop offset=".605" stop-color="#36311e"/>
			<stop offset=".609" stop-color="#35301e"/>
			<stop offset=".613" stop-color="#342f1d"/>
			<stop offset=".617" stop-color="#322e1c"/>
			<stop offset=".621" stop-color="#312d1b"/>
			<stop offset=".625" stop-color="#302c1b"/>
			<stop offset=".629" stop-color="#2e2a1a"/>
			<stop offset=".633" stop-color="#2d2919"/>
			<stop offset=".637" stop-color="#2c2819"/>
			<stop offset=".641" stop-color="#2b2718"/>
			<stop offset=".645" stop-color="#292617"/>
			<stop offset=".648" stop-color="#282516"/>
			<stop offset=".652" stop-color="#272316"/>
			<stop offset=".656" stop-color="#262215"/>
			<stop offset=".66" stop-color="#242114"/>
			<stop offset=".664" stop-color="#232014"/>
			<stop offset=".668" stop-color="#221f13"/>
			<stop offset=".672" stop-color="#211e12"/>
			<stop offset=".676" stop-color="#1f1d11"/>
			<stop offset=".68" stop-color="#1e1b11"/>
			<stop offset=".684" stop-color="#1d1a10"/>
			<stop offset=".688" stop-color="#1b190f"/>
			<stop offset=".691" stop-color="#1a180f"/>
			<stop offset=".695" stop-color="#19170e"/>
			<stop offset=".699" stop-color="#18160d"/>
			<stop offset=".703" stop-color="#16140d"/>
			<stop offset=".707" stop-color="#15130c"/>
			<stop offset=".711" stop-color="#14120b"/>
			<stop offset=".715" stop-color="#13110a"/>
			<stop offset=".719" stop-color="#11100a"/>
			<stop offset=".723" stop-color="#100f09"/>
			<stop offset=".727" stop-color="#0f0e08"/>
			<stop offset=".73" stop-color="#0e0c08"/>
			<stop offset=".734" stop-color="#0c0b07"/>
			<stop offset=".738" stop-color="#0b0a06"/>
			<stop offset=".742" stop-color="#0a0905"/>
			<stop offset=".746" stop-color="#080805"/>
			<stop offset=".75" stop-color="#070704"/>
			<stop offset=".754" stop-color="#060503"/>
			<stop offset=".758" stop-color="#050403"/>
			<stop offset=".762" stop-color="#030302"/>
			<stop offset=".766" stop-color="#020201"/>
			<stop offset=".77" stop-color="#010101"/>
			<stop offset=".773" stop-color="#000000"/>
			<stop offset=".781" stop-color="#000000"/>
			<stop offset=".813" stop-color="#000000"/>
			<stop offset=".875" stop-color="#000000"/>
			<stop offset="1" stop-color="#000000"/>
		</linearGradient>
		<clipPath clipPathUnits="userSpaceOnUse" id="cp7">
			<path d="m893 563h664v1202h-664z"/>
		</clipPath>
		<clipPath clipPathUnits="userSpaceOnUse" id="cp8">
			<path d="m1556.9 564.06l-5.09 0.08q-73.78-4.5-103.72 82.36-2.07 10.53-0.75 21.4l6.68 43.69-1.21 5.66q-11.41 7.05-10.77 14.07l3.98 52.71q0.87 8.42 4.15 11.14 13.5-0.04 22.7 14.53 10.36 19.37 13.81 35.54 11.7 40.11-5.38 75.88-16.31 23.73-48.69 35.42l-31.92 9.88-96.62 19.67q-20.93 9.08-32.89 37.28-8.38 16.45-14.41 58.13-0.82 4.55-2.28 28.89-0.94 96.6-3.11 101.68-13.86 71.59-23.95 143.36-24.01 8.54-56.52 41.76-28.85 28.06-127.57 142.08-71.17-1.96-93.3 5.9-11.66 4.33-18.7 10.76l-31.83 28.31q-5.81 5.77-5.72 9.37 11.13 23.85 52.48-14.32-53.81 48.36-21.5 95.62 33.44 34.9 155.21 76.71 29.9 9.28 105.92 11.76l369.57 0.94z"/>
		</clipPath>
		<clipPath clipPathUnits="userSpaceOnUse" id="cp9">
			<path d="m1556.9 564.06l-5.09 0.08q-73.78-4.5-103.72 82.36-2.07 10.53-0.75 21.4l6.68 43.69-1.21 5.66q-11.41 7.05-10.77 14.07l3.98 52.71q0.87 8.42 4.15 11.14 13.5-0.04 22.7 14.53 10.36 19.37 13.81 35.54 11.7 40.11-5.38 75.88-16.31 23.73-48.69 35.42l-31.92 9.88-96.62 19.67q-20.93 9.08-32.89 37.28-8.38 16.45-14.41 58.13-0.82 4.55-2.28 28.89-0.94 96.6-3.11 101.68-13.86 71.59-23.95 143.36-24.01 8.54-56.52 41.76-28.85 28.06-127.57 142.08-71.17-1.96-93.3 5.9-11.66 4.33-18.7 10.76l-31.83 28.31q-5.81 5.77-5.72 9.37 11.13 23.85 52.48-14.32-53.81 48.36-21.5 95.62 33.44 34.9 155.21 76.71 29.9 9.28 105.92 11.76l369.57 0.94z"/>
		</clipPath>
		<linearGradient id="g3" x2="1" gradientUnits="userSpaceOnUse" gradientTransform="matrix(-680.282,1193.427,-1018.18,-580.387,1985.909,805.685)">
			<stop offset="0" stop-color="#ad9e61"/>
			<stop offset=".004" stop-color="#ac9d60"/>
			<stop offset=".008" stop-color="#ab9c5f"/>
			<stop offset=".012" stop-color="#a99b5f"/>
			<stop offset=".016" stop-color="#a89a5e"/>
			<stop offset=".02" stop-color="#a7985d"/>
			<stop offset=".023" stop-color="#a6975d"/>
			<stop offset=".027" stop-color="#a4965c"/>
			<stop offset=".031" stop-color="#a3955b"/>
			<stop offset=".035" stop-color="#a2945b"/>
			<stop offset=".039" stop-color="#a1935a"/>
			<stop offset=".043" stop-color="#9f9259"/>
			<stop offset=".047" stop-color="#9e9058"/>
			<stop offset=".051" stop-color="#9d8f58"/>
			<stop offset=".055" stop-color="#9c8e57"/>
			<stop offset=".059" stop-color="#9a8d56"/>
			<stop offset=".063" stop-color="#998c56"/>
			<stop offset=".066" stop-color="#988b55"/>
			<stop offset=".07" stop-color="#968954"/>
			<stop offset=".074" stop-color="#958853"/>
			<stop offset=".078" stop-color="#948753"/>
			<stop offset=".082" stop-color="#938652"/>
			<stop offset=".086" stop-color="#918551"/>
			<stop offset=".09" stop-color="#908451"/>
			<stop offset=".094" stop-color="#8f8350"/>
			<stop offset=".098" stop-color="#8e814f"/>
			<stop offset=".102" stop-color="#8c804e"/>
			<stop offset=".105" stop-color="#8b7f4e"/>
			<stop offset=".109" stop-color="#8a7e4d"/>
			<stop offset=".113" stop-color="#897d4c"/>
			<stop offset=".117" stop-color="#877c4c"/>
			<stop offset=".121" stop-color="#867a4b"/>
			<stop offset=".125" stop-color="#85794a"/>
			<stop offset=".129" stop-color="#83784a"/>
			<stop offset=".133" stop-color="#827749"/>
			<stop offset=".137" stop-color="#817648"/>
			<stop offset=".141" stop-color="#807547"/>
			<stop offset=".145" stop-color="#7e7347"/>
			<stop offset=".148" stop-color="#7d7246"/>
			<stop offset=".152" stop-color="#7c7145"/>
			<stop offset=".156" stop-color="#7b7045"/>
			<stop offset=".16" stop-color="#796f44"/>
			<stop offset=".164" stop-color="#786e43"/>
			<stop offset=".168" stop-color="#776d42"/>
			<stop offset=".172" stop-color="#766b42"/>
			<stop offset=".176" stop-color="#746a41"/>
			<stop offset=".18" stop-color="#736940"/>
			<stop offset=".184" stop-color="#726840"/>
			<stop offset=".188" stop-color="#70673f"/>
			<stop offset=".191" stop-color="#6f663e"/>
			<stop offset=".195" stop-color="#6e643d"/>
			<stop offset=".199" stop-color="#6d633d"/>
			<stop offset=".203" stop-color="#6b623c"/>
			<stop offset=".207" stop-color="#6a613b"/>
			<stop offset=".211" stop-color="#69603b"/>
			<stop offset=".215" stop-color="#685f3a"/>
			<stop offset=".219" stop-color="#665d39"/>
			<stop offset=".223" stop-color="#655c39"/>
			<stop offset=".227" stop-color="#645b38"/>
			<stop offset=".23" stop-color="#635a37"/>
			<stop offset=".234" stop-color="#615936"/>
			<stop offset=".238" stop-color="#605836"/>
			<stop offset=".242" stop-color="#5f5735"/>
			<stop offset=".246" stop-color="#5d5534"/>
			<stop offset=".25" stop-color="#5c5434"/>
			<stop offset=".254" stop-color="#5b5333"/>
			<stop offset=".258" stop-color="#5a5232"/>
			<stop offset=".262" stop-color="#585131"/>
			<stop offset=".266" stop-color="#575031"/>
			<stop offset=".27" stop-color="#564e30"/>
			<stop offset=".273" stop-color="#554d2f"/>
			<stop offset=".277" stop-color="#534c2f"/>
			<stop offset=".281" stop-color="#524b2e"/>
			<stop offset=".285" stop-color="#514a2d"/>
			<stop offset=".289" stop-color="#50492c"/>
			<stop offset=".293" stop-color="#4e482c"/>
			<stop offset=".297" stop-color="#4d462b"/>
			<stop offset=".301" stop-color="#4c452a"/>
			<stop offset=".305" stop-color="#4a442a"/>
			<stop offset=".309" stop-color="#494329"/>
			<stop offset=".313" stop-color="#484228"/>
			<stop offset=".316" stop-color="#474128"/>
			<stop offset=".32" stop-color="#453f27"/>
			<stop offset=".324" stop-color="#443e26"/>
			<stop offset=".328" stop-color="#433d25"/>
			<stop offset=".332" stop-color="#423c25"/>
			<stop offset=".336" stop-color="#403b24"/>
			<stop offset=".34" stop-color="#3f3a23"/>
			<stop offset=".344" stop-color="#3e3823"/>
			<stop offset=".348" stop-color="#3d3722"/>
			<stop offset=".352" stop-color="#3b3621"/>
			<stop offset=".355" stop-color="#3a3520"/>
			<stop offset=".359" stop-color="#393420"/>
			<stop offset=".363" stop-color="#37331f"/>
			<stop offset=".367" stop-color="#36321e"/>
			<stop offset=".371" stop-color="#35301e"/>
			<stop offset=".375" stop-color="#342f1d"/>
			<stop offset=".379" stop-color="#322e1c"/>
			<stop offset=".383" stop-color="#312d1b"/>
			<stop offset=".387" stop-color="#302c1b"/>
			<stop offset=".391" stop-color="#2f2b1a"/>
			<stop offset=".395" stop-color="#2d2919"/>
			<stop offset=".398" stop-color="#2c2819"/>
			<stop offset=".402" stop-color="#2b2718"/>
			<stop offset=".406" stop-color="#2a2617"/>
			<stop offset=".41" stop-color="#282517"/>
			<stop offset=".414" stop-color="#272416"/>
			<stop offset=".418" stop-color="#262215"/>
			<stop offset=".422" stop-color="#242114"/>
			<stop offset=".426" stop-color="#232014"/>
			<stop offset=".43" stop-color="#221f13"/>
			<stop offset=".434" stop-color="#211e12"/>
			<stop offset=".438" stop-color="#1f1d12"/>
			<stop offset=".441" stop-color="#1e1c11"/>
			<stop offset=".445" stop-color="#1d1a10"/>
			<stop offset=".449" stop-color="#1c190f"/>
			<stop offset=".453" stop-color="#1a180f"/>
			<stop offset=".457" stop-color="#19170e"/>
			<stop offset=".461" stop-color="#18160d"/>
			<stop offset=".465" stop-color="#17150d"/>
			<stop offset=".469" stop-color="#15130c"/>
			<stop offset=".473" stop-color="#14120b"/>
			<stop offset=".477" stop-color="#13110a"/>
			<stop offset=".48" stop-color="#11100a"/>
			<stop offset=".484" stop-color="#100f09"/>
			<stop offset=".488" stop-color="#0f0e08"/>
			<stop offset=".492" stop-color="#0e0d08"/>
			<stop offset=".496" stop-color="#0c0b07"/>
			<stop offset=".5" stop-color="#0b0a06"/>
			<stop offset=".504" stop-color="#0a0906"/>
			<stop offset=".508" stop-color="#090805"/>
			<stop offset=".512" stop-color="#070704"/>
			<stop offset=".516" stop-color="#060603"/>
			<stop offset=".52" stop-color="#050403"/>
			<stop offset=".523" stop-color="#040302"/>
			<stop offset=".527" stop-color="#020201"/>
			<stop offset=".531" stop-color="#010101"/>
			<stop offset=".535" stop-color="#010000"/>
			<stop offset=".539" stop-color="#000000"/>
			<stop offset=".547" stop-color="#000000"/>
			<stop offset=".563" stop-color="#000000"/>
			<stop offset=".625" stop-color="#000000"/>
			<stop offset=".75" stop-color="#000000"/>
			<stop offset=".761" stop-color="#000000"/>
			<stop offset="1" stop-color="#000000"/>
		</linearGradient>
	</defs>
	<style>
		.s0 { fill: url(#g1) } 
		.s1 { fill: #ec5f2f } 
		.s2 { fill: #fddd16 } 
		.s3 { fill: url(#g2) } 
		.s4 { fill: url(#g3) } 
		.s5 { fill: #fee88e } 
	</style>
	<g id="Layer 1">
		<g id="Clip-Path">
		</g>
		<g id="Clip-Path" clip-path="url(#cp1)">
			<g>
				<g id="Clip-Path" clip-path="url(#cp2)">
					<g>
						<g id="Clip-Path" clip-path="url(#cp3)">
							<g>
								<path class="s0" d="m554.29 291.44v2168.54h1987.89v-2168.54z"/>
							</g>
						</g>
					</g>
				</g>
			</g>
		</g>
		<path class="s1" d="m2688.59 1660.72l-19.69-0.72-27.94-0.57q-32.06-0.5-76.37-0.77-90.76-0.52-205.18-0.46-28.87-0.03-166.46 0.19l-1512.8 2.87q-145.16 0.34-219.32 1.13-89.4 0.86-178.79 2.88-5.24 0.14 51.93 0.03 157.01 3.02 256.92 2.89l1380.55-2.62q145.56-0.29 232.69-0.64 106.81-0.39 200.1-1.12 197.66-1.9 255.51-2.97-0.87-0.05 28.85-0.12z"/>
		<path class="s1" d="m2854.88 1715.73l-35.5-0.69-50.34-0.54-63.31-0.42-74.34-0.3-83.49-0.19-90.73-0.09-96.06-0.03q-98.73 0.01-200.5 0.13-125.53 0.11-544.84 0.81-224.27 0.37-455.41 1.4-127.19 0.53-422.57 2.33-135.96 0.85-128.66 0.85-21.41 0.17-16.15 0.24 5.26 0.06 35.41 0.04 0.85 0.02 141.99-0.2 522.82 2.52 731.41 2.25 228.21-0.33 386.97-0.71 189.07-0.42 369-1.14 88.06-0.36 162.4-0.82l265.01-1.76q68.72-0.53 117.71-1.01-1.58-0.04 52-0.15z"/>
		<path class="s1" d="m2490.87 1685.96l-14.39-0.74q-37.1-1.32-110.01-1.8-72.91-0.48-156.94-0.51-22.17-0.03-118.78 0.02l-1224.3 0.7q-117.81 0.12-205.4 0.82-32.1 0.26-62.73 0.63l-29.83 0.4q-57.82 0.87-79.01 1.24-19.45 0.39-13.53 0.39-5.42 0.13 53.76 0.08 162.54 3.24 265.97 3.24l1171.45-0.67q55.62-0.02 132.24-0.19 134.54-0.39 183.83-0.93 144.34-1.62 186.6-2.6-0.65-0.05 21.07-0.08z"/>
		<path class="s1" d="m2591.82 1702.08l-13.52-0.75q-36.99-1.89-212.48-2.38-19.81-0.08-114.28-0.11l-582.11 0.03q-123.8-0.02-168.56-0.09-82.18-0.12-102.52-0.17l-541.87-1.23q-80.01-0.15-104.68-0.17-104.53-0.08-129.52-0.02-45.62 0.03-91.69 0.17l-45.54 0.16-44.49 0.22q-29.29 0.16-112.65 0.85-80.44 0.66-62.99 0.71-7.78 0.11 77.16 0.29 170.56 2.96 340.8 4.09l40.93 0.16 578.7 1.32q133.41 0.3 224.87 0.41 62.96 0.08 131.03 0.07l441.05-0.03q99.91-0.01 159.75-0.21 73.33-0.19 137.38-0.75 135.71-1.55 175.42-2.51-0.6-0.05 19.81-0.06z"/>
		<path class="s1" d="m2641.24 1737.34l-13.77-0.7q-35.54-1.2-105.36-1.45-69.83-0.25-150.29-0.01-21.23 0.04-113.75 0.4l-1368.69 5.39q-160.66 0.69-280.12 1.81-126.22 1.18-252.42 3.54 2.18 0.06 14.64 0.04 0.35 0.02 58.68-0.21 221.67 2.44 362.72 1.96l1346.83-5.3q53.26-0.2 126.64-0.62 128.83-0.82 176.03-1.51 138.23-2.1 178.68-3.2-0.61-0.05 20.18-0.14z"/>
		<path class="s1" d="m2289.19 1767.77l-9.1-0.74q-23.5-1.36-69.67-2.07-46.17-0.72-99.38-1.02-14.04-0.11-75.23-0.35l-929.68-3.34q-112.22-0.35-195.67 0-30.58 0.13-59.76 0.38l-28.41 0.28q-55.08 0.64-75.27 0.93-18.53 0.32-12.9 0.33-5.16 0.1 51.21 0.3 154.82 3.88 253.36 4.3l918.8 3.3q35.23 0.14 83.75 0.19 60.02-0.02 71.71-0.11 23.63-0.09 44.71-0.3 91.43-1.2 118.19-2.07-0.4-0.04 13.34-0.01z"/>
		<path class="s2" d="m1745.3 2325.25l-2.86-11.95q-11.65-49.24-20.56-76.3-1.73-7.42-1.82-9.01-1.59-2.88-0.05-48.37 0.87 0.36-4.18-28.93-0.41-7.78 0.03-9.54 0.77-6.63 3.65-14.36l15.14-38.84q1-1.13 8.17-35.38 2.37-8.64 3.08-9.45 2.41-5 5.81-6.6l13.06-3.17q0.6-0.06 1.45-3.1l1.97-10.89q1.3-4.35 5.35-8.91 9.69-10.16 37.6-25.01 51.02 5.61 68.81-1.05 17.46-6.16 32.52-24.33 37.37 15.71 59.76 17.35 22.52 2.7 72.58-4.21-166.23 61.61-209.54 110.45-13.24 14.1-23.56 41.41z"/>
		<path class="s2" d="m1353.59 2320.94l3.13-11.89q12.72-48.98 22.23-75.82 1.9-7.38 2.02-8.98 1.65-2.84 1.12-48.35-0.89 0.34 4.81-28.83 0.59-7.77 0.18-9.54-0.63-6.65-3.33-14.44l-14.29-39.16q-0.97-1.15-7.38-35.56-2.19-8.69-2.87-9.5-2.3-5.06-5.67-6.73l-12.98-3.46q-0.6-0.07-1.38-3.13l-1.74-10.93q-1.19-4.38-5.15-9.03-9.45-10.38-37.04-25.83-51.12 4.47-68.77-2.56-17.31-6.56-31.97-25.05-37.71 14.89-60.13 16.03-22.58 2.2-72.47-5.81 164.84 65.26 207.05 115.04 12.93 14.39 22.65 41.92z"/>
		<path class="s2" d="m1353.58 2321.71c-0.33-0.01-0.63-0.23-0.73-0.55l-61.98-201.61v0.01q-9.67-27.37-22.48-41.63l-0.01-0.02q-42.11-49.63-206.75-114.82c-0.37-0.15-0.57-0.54-0.47-0.92 0.1-0.34 0.41-0.57 0.75-0.57q0.06 0.01 0.12 0.01 37.95 6.05 59.65 6.29 7.21 0.08 12.62-0.49h0.01q26.19-2.18 59.9-15.98 0.16-0.06 0.31-0.06 0.36 0.01 0.59 0.3 14.52 18.31 31.62 24.79 12.61 4.09 33.31 4.31 15.36 0.18 35.13-1.78 0.05 0 0.08 0 0.2 0 0.38 0.1 27.69 15.51 37.23 25.98l0.02 0.02q4.06 4.78 5.31 9.32l0.02 0.09 1.72 10.87q0.54 2.14 0.9 2.58h-0.01l12.92 3.44q0.07 0.02 0.15 0.06 3.57 1.78 5.98 7.01 0.8 1.14 2.96 9.72l0.01 0.05q6.21 33.32 7.23 35.22 0.08 0.1 0.12 0.21l14.28 39.17 0.01 0.01q2.71 7.84 3.36 14.55 0.41 1.91-0.17 9.73l-0.01 0.09q-5.02 25.71-4.93 28.26 0.12 0.19 0.13 0.42 0.53 44.5-1.13 48.56-0.19 1.81-2.03 8.97l-0.02 0.07q-9.5 26.81-22.22 75.75v0.01l-3.12 11.88c-0.09 0.33-0.39 0.57-0.73 0.58q-0.01 0-0.03 0z"/>
		<g id="Clip-Path" clip-path="url(#cp4)">
			<g>
				<g id="Clip-Path" clip-path="url(#cp5)">
					<g>
						<g id="Clip-Path" clip-path="url(#cp6)">
							<g>
								<path class="s3" d="m1553.22 561.14v1203.18h663.17v-1203.18z"/>
							</g>
						</g>
					</g>
				</g>
			</g>
		</g>
		<g id="Clip-Path" clip-path="url(#cp7)">
			<g>
				<g id="Clip-Path" clip-path="url(#cp8)">
					<g>
						<g id="Clip-Path" clip-path="url(#cp9)">
							<g>
								<path class="s4" d="m893.73 561.14v1203.18h663.17v-1203.18z"/>
							</g>
						</g>
					</g>
				</g>
			</g>
		</g>
		<path class="s5" d="m1750.93 1205.27l-3 11.92q-12.18 49.11-21.4 76.06-1.8 7.4-1.92 8.99-1.62 2.86-0.58 48.37 0.89-0.36-4.5 28.88-0.5 7.77-0.06 9.54 0.69 6.65 3.48 14.4l14.71 39q1 1.14 7.78 35.48 2.28 8.66 2.98 9.47 2.35 5.03 5.74 6.66l13.02 3.32q0.6 0.06 1.41 3.11l1.86 10.92q1.25 4.36 5.25 8.97 9.57 10.27 37.32 25.42 51.99-5.02 68.79 1.8 17.38 6.36 32.25 24.7 37.55-15.31 59.95-16.7 19.28-2.67 72.53 5.01-165.54-63.44-208.31-112.75-13.08-14.24-23.1-41.66z"/>
		<path class="s5" d="m1359.19 1205.27l3 11.92q12.18 49.11 21.4 76.06 1.8 7.4 1.91 8.99 1.64 2.86 0.59 48.37-0.88-0.36 4.5 28.88 0.49 7.77 0.07 9.54-0.7 6.65-3.49 14.4l-14.72 39q-0.98 1.14-7.77 35.48-2.28 8.66-2.98 9.47-2.35 5.03-5.74 6.66l-13.02 3.32q-0.6 0.06-1.41 3.11l-1.86 10.92q-1.25 4.36-5.25 8.97-9.57 10.27-37.33 25.42-51.97-5.02-68.78 1.8-17.39 6.36-32.25 24.7-37.55-15.31-59.95-16.7-19.27-2.67-72.53 5.01 165.54-63.44 208.31-112.75 13.08-14.24 23.11-41.66z"/>
		<path class="s5" d="m1359.19 1204.49c-0.33 0-0.63 0.22-0.73 0.54l-64.2 200.91q-9.98 27.26-22.94 41.38l-0.01 0.02q-42.65 49.16-208 112.53c-0.38 0.14-0.58 0.54-0.48 0.92 0.09 0.34 0.4 0.57 0.75 0.57q0.05 0 0.11 0 38.02-5.63 59.72-5.63 7.21-0.01 12.61 0.62h0.02q26.15 2.47 59.72 16.64 0.15 0.06 0.3 0.06c0.23 0 0.45-0.1 0.6-0.28q14.71-18.16 31.89-24.45 12.65-3.95 33.36-3.95 15.34 0.01 35.1 2.17 0.05 0.01 0.08 0.01 0.2 0 0.37-0.1 27.87-15.2 37.52-25.57l0.02-0.02q4.12-4.73 5.41-9.26l0.02-0.08 1.85-10.86q0.57-2.13 0.92-2.57l12.95-3.3q0.07-0.01 0.15-0.05 3.6-1.74 6.06-6.95 0.81-1.13 3.07-9.68l0.01-0.05q6.57-33.25 7.62-35.15v0.01q0.07-0.1 0.12-0.22l14.71-39v-0.01q2.82-7.81 3.53-14.51h-0.01q0.45-1.91-0.05-9.74l-0.01-0.09q-4.76-25.76-4.62-28.31 0.12-0.19 0.13-0.42 1.02-44.49-0.59-48.56-0.18-1.81-1.93-9l-0.02-0.06q-9.21-26.92-21.38-76l-3-11.92c-0.08-0.34-0.38-0.58-0.73-0.59q0 0-0.02 0z"/>
	</g>
</svg>